<?xml version="1.0" encoding="UTF-8"?>
<svg xmlns="http://www.w3.org/2000/svg" xmlns:xlink="http://www.w3.org/1999/xlink" width="375pt" height="374.999991pt" viewBox="0 0 375 374.999991" version="1.2">
<defs>
<clipPath id="clip1">
  <path d="M 179 95.15625 L 196 95.15625 L 196 135 L 179 135 Z M 179 95.15625 "/>
</clipPath>
<clipPath id="clip2">
  <path d="M 246 330 L 338 330 L 338 374.90625 L 246 374.90625 Z M 246 330 "/>
</clipPath>
<clipPath id="clip3">
  <path d="M 31 330 L 123 330 L 123 374.90625 L 31 374.90625 Z M 31 330 "/>
</clipPath>
</defs>
<g id="surface1">
<path style=" stroke:none;fill-rule:nonzero;fill:rgb(100%,100%,100%);fill-opacity:1;" d="M 2.324219 232.449219 L 2.324219 269.316406 L 372.570312 269.316406 L 372.570312 232.449219 L 2.324219 232.449219 "/>
<path style=" stroke:none;fill-rule:nonzero;fill:rgb(1.179504%,59.609985%,61.959839%);fill-opacity:1;" d="M 2.324219 232.449219 L 0.21875 232.449219 L 0.21875 269.316406 C 0.21875 269.867188 0.441406 270.410156 0.832031 270.804688 C 1.222656 271.195312 1.765625 271.421875 2.324219 271.421875 L 372.570312 271.421875 C 373.132812 271.421875 373.664062 271.199219 374.058594 270.804688 C 374.457031 270.40625 374.675781 269.875 374.675781 269.316406 L 374.675781 232.449219 C 374.675781 231.886719 374.457031 231.363281 374.058594 230.960938 C 373.664062 230.5625 373.132812 230.347656 372.570312 230.347656 L 2.324219 230.347656 C 1.765625 230.347656 1.222656 230.570312 0.832031 230.960938 C 0.4375 231.351562 0.21875 231.894531 0.21875 232.449219 L 2.324219 232.449219 L 2.324219 234.554688 L 370.464844 234.554688 L 370.464844 267.210938 L 4.429688 267.210938 L 4.429688 232.449219 L 2.324219 232.449219 L 2.324219 234.554688 L 2.324219 232.449219 "/>
<path style=" stroke:none;fill-rule:nonzero;fill:rgb(100%,100%,100%);fill-opacity:1;" d="M 193.234375 132.6875 L 181.664062 132.6875 L 181.664062 97.273438 L 193.234375 97.273438 L 193.234375 132.6875 "/>
<g clip-path="url(#clip1)" clip-rule="nonzero">
<path style=" stroke:none;fill-rule:nonzero;fill:rgb(1.179504%,59.609985%,61.959839%);fill-opacity:1;" d="M 193.234375 132.6875 L 193.234375 130.582031 L 183.769531 130.582031 L 183.769531 99.375 L 191.128906 99.378906 L 191.128906 132.6875 L 193.234375 132.6875 L 193.234375 130.582031 L 193.234375 132.6875 L 195.335938 132.6875 L 195.335938 97.273438 C 195.335938 96.710938 195.117188 96.179688 194.722656 95.785156 C 194.324219 95.386719 193.792969 95.167969 193.234375 95.167969 L 181.664062 95.167969 C 181.105469 95.167969 180.5625 95.390625 180.171875 95.785156 C 179.777344 96.175781 179.558594 96.71875 179.558594 97.273438 L 179.558594 132.6875 C 179.558594 133.242188 179.777344 133.785156 180.171875 134.175781 C 180.5625 134.570312 181.105469 134.792969 181.664062 134.792969 L 193.234375 134.792969 C 193.792969 134.792969 194.324219 134.574219 194.722656 134.175781 C 195.117188 133.78125 195.335938 133.25 195.335938 132.6875 L 193.234375 132.6875 "/>
</g>
<path style=" stroke:none;fill-rule:nonzero;fill:rgb(100%,100%,100%);fill-opacity:1;" d="M 372.570312 247.996094 L 2.324219 247.996094 L 2.324219 117.875 L 372.570312 117.875 L 372.570312 247.996094 "/>
<path style=" stroke:none;fill-rule:nonzero;fill:rgb(1.179504%,59.609985%,61.959839%);fill-opacity:1;" d="M 372.570312 247.996094 L 372.570312 245.890625 L 4.429688 245.890625 L 4.429688 119.980469 L 370.464844 119.980469 L 370.464844 247.996094 L 372.570312 247.996094 L 372.570312 245.890625 L 372.570312 247.996094 L 374.675781 247.996094 L 374.675781 117.875 C 374.675781 117.3125 374.457031 116.785156 374.058594 116.386719 C 373.664062 115.988281 373.132812 115.769531 372.570312 115.769531 L 2.324219 115.769531 C 1.765625 115.769531 1.222656 115.992188 0.832031 116.386719 C 0.4375 116.777344 0.21875 117.320312 0.21875 117.875 L 0.21875 247.996094 C 0.21875 248.550781 0.441406 249.09375 0.832031 249.484375 C 1.222656 249.875 1.765625 250.101562 2.324219 250.101562 L 372.570312 250.101562 C 373.132812 250.101562 373.664062 249.882812 374.058594 249.484375 C 374.457031 249.085938 374.675781 248.558594 374.675781 247.996094 L 372.570312 247.996094 "/>
<path style=" stroke:none;fill-rule:nonzero;fill:rgb(100%,100%,100%);fill-opacity:1;" d="M 31.25 144.980469 L 11.726562 144.980469 L 11.726562 126.183594 L 31.25 126.183594 L 31.25 144.980469 "/>
<path style=" stroke:none;fill-rule:nonzero;fill:rgb(1.179504%,59.609985%,61.959839%);fill-opacity:1;" d="M 31.25 144.980469 L 31.25 142.875 L 13.828125 142.875 L 13.828125 128.289062 L 29.144531 128.289062 L 29.144531 144.980469 L 31.25 144.980469 L 31.25 142.875 L 31.25 144.980469 L 33.355469 144.980469 L 33.355469 126.183594 C 33.355469 125.621094 33.136719 125.09375 32.738281 124.695312 C 32.339844 124.296875 31.8125 124.078125 31.25 124.078125 L 11.726562 124.078125 C 11.171875 124.078125 10.628906 124.304688 10.234375 124.695312 C 9.84375 125.085938 9.621094 125.628906 9.621094 126.183594 L 9.621094 144.980469 C 9.621094 145.535156 9.84375 146.078125 10.234375 146.46875 C 10.628906 146.859375 11.171875 147.085938 11.726562 147.085938 L 31.25 147.085938 C 31.8125 147.085938 32.339844 146.867188 32.738281 146.46875 C 33.136719 146.070312 33.355469 145.542969 33.355469 144.980469 L 31.25 144.980469 "/>
<path style=" stroke:none;fill-rule:nonzero;fill:rgb(100%,100%,100%);fill-opacity:1;" d="M 64.519531 144.980469 L 44.992188 144.980469 L 44.992188 126.183594 L 64.519531 126.183594 L 64.519531 144.980469 "/>
<path style=" stroke:none;fill-rule:nonzero;fill:rgb(1.179504%,59.609985%,61.959839%);fill-opacity:1;" d="M 64.519531 144.980469 L 64.519531 142.875 L 47.097656 142.875 L 47.097656 128.289062 L 62.414062 128.289062 L 62.414062 144.980469 L 64.519531 144.980469 L 64.519531 142.875 L 64.519531 144.980469 L 66.621094 144.980469 L 66.621094 126.183594 C 66.621094 125.621094 66.402344 125.09375 66.007812 124.695312 C 65.609375 124.296875 65.078125 124.078125 64.519531 124.078125 L 44.992188 124.078125 C 44.4375 124.078125 43.894531 124.304688 43.503906 124.695312 C 43.113281 125.085938 42.886719 125.628906 42.886719 126.183594 L 42.886719 144.980469 C 42.886719 145.535156 43.113281 146.078125 43.503906 146.46875 C 43.894531 146.859375 44.4375 147.085938 44.992188 147.085938 L 64.519531 147.085938 C 65.078125 147.085938 65.609375 146.867188 66.007812 146.46875 C 66.402344 146.070312 66.621094 145.542969 66.621094 144.980469 L 64.519531 144.980469 "/>
<path style=" stroke:none;fill-rule:nonzero;fill:rgb(100%,100%,100%);fill-opacity:1;" d="M 97.78125 144.980469 L 78.257812 144.980469 L 78.257812 126.183594 L 97.78125 126.183594 L 97.78125 144.980469 "/>
<path style=" stroke:none;fill-rule:nonzero;fill:rgb(1.179504%,59.609985%,61.959839%);fill-opacity:1;" d="M 97.78125 144.980469 L 97.78125 142.875 L 80.359375 142.875 L 80.359375 128.289062 L 95.675781 128.289062 L 95.675781 144.980469 L 97.78125 144.980469 L 97.78125 142.875 L 97.78125 144.980469 L 99.886719 144.980469 L 99.886719 126.183594 C 99.886719 125.621094 99.667969 125.09375 99.269531 124.695312 C 98.871094 124.296875 98.34375 124.078125 97.78125 124.078125 L 78.257812 124.078125 C 77.703125 124.078125 77.160156 124.304688 76.765625 124.695312 C 76.375 125.085938 76.152344 125.628906 76.152344 126.183594 L 76.152344 144.980469 C 76.152344 145.535156 76.375 146.078125 76.765625 146.46875 C 77.160156 146.859375 77.703125 147.085938 78.257812 147.085938 L 97.78125 147.085938 C 98.34375 147.085938 98.871094 146.867188 99.269531 146.46875 C 99.667969 146.070312 99.886719 145.542969 99.886719 144.980469 L 97.78125 144.980469 "/>
<path style=" stroke:none;fill-rule:nonzero;fill:rgb(100%,100%,100%);fill-opacity:1;" d="M 131.039062 144.980469 L 111.515625 144.980469 L 111.515625 126.183594 L 131.039062 126.183594 L 131.039062 144.980469 "/>
<path style=" stroke:none;fill-rule:nonzero;fill:rgb(1.179504%,59.609985%,61.959839%);fill-opacity:1;" d="M 131.039062 144.980469 L 131.039062 142.875 L 113.621094 142.875 L 113.621094 128.289062 L 128.933594 128.289062 L 128.933594 144.980469 L 131.039062 144.980469 L 131.039062 142.875 L 131.039062 144.980469 L 133.144531 144.980469 L 133.144531 126.183594 C 133.144531 125.621094 132.925781 125.09375 132.527344 124.695312 C 132.132812 124.296875 131.601562 124.078125 131.039062 124.078125 L 111.515625 124.078125 C 110.964844 124.078125 110.421875 124.304688 110.027344 124.695312 C 109.636719 125.085938 109.410156 125.628906 109.410156 126.183594 L 109.410156 144.980469 C 109.410156 145.535156 109.636719 146.078125 110.027344 146.46875 C 110.421875 146.859375 110.964844 147.085938 111.515625 147.085938 L 131.039062 147.085938 C 131.601562 147.085938 132.132812 146.867188 132.527344 146.46875 C 132.925781 146.070312 133.144531 145.542969 133.144531 144.980469 L 131.039062 144.980469 "/>
<path style=" stroke:none;fill-rule:nonzero;fill:rgb(100%,100%,100%);fill-opacity:1;" d="M 164.304688 144.980469 L 144.78125 144.980469 L 144.78125 126.183594 L 164.304688 126.183594 L 164.304688 144.980469 "/>
<path style=" stroke:none;fill-rule:nonzero;fill:rgb(1.179504%,59.609985%,61.959839%);fill-opacity:1;" d="M 164.304688 144.980469 L 164.304688 142.875 L 146.886719 142.875 L 146.886719 128.289062 L 162.199219 128.289062 L 162.199219 144.980469 L 164.304688 144.980469 L 164.304688 142.875 L 164.304688 144.980469 L 166.410156 144.980469 L 166.410156 126.183594 C 166.410156 125.621094 166.191406 125.09375 165.792969 124.695312 C 165.398438 124.296875 164.867188 124.078125 164.304688 124.078125 L 144.78125 124.078125 C 144.226562 124.078125 143.683594 124.304688 143.292969 124.695312 C 142.898438 125.085938 142.675781 125.628906 142.675781 126.183594 L 142.675781 144.980469 C 142.675781 145.535156 142.902344 146.078125 143.292969 146.46875 C 143.683594 146.859375 144.226562 147.085938 144.78125 147.085938 L 164.304688 147.085938 C 164.867188 147.085938 165.398438 146.867188 165.792969 146.46875 C 166.191406 146.070312 166.410156 145.542969 166.410156 144.980469 L 164.304688 144.980469 "/>
<path style=" stroke:none;fill-rule:nonzero;fill:rgb(100%,100%,100%);fill-opacity:1;" d="M 197.570312 144.980469 L 178.042969 144.980469 L 178.042969 126.183594 L 197.570312 126.183594 L 197.570312 144.980469 "/>
<path style=" stroke:none;fill-rule:nonzero;fill:rgb(1.179504%,59.609985%,61.959839%);fill-opacity:1;" d="M 197.570312 144.980469 L 197.570312 142.875 L 180.148438 142.875 L 180.148438 128.289062 L 195.464844 128.289062 L 195.464844 144.980469 L 197.570312 144.980469 L 197.570312 142.875 L 197.570312 144.980469 L 199.675781 144.980469 L 199.675781 126.183594 C 199.675781 125.621094 199.457031 125.09375 199.058594 124.695312 C 198.660156 124.296875 198.128906 124.078125 197.570312 124.078125 L 178.042969 124.078125 C 177.488281 124.078125 176.949219 124.304688 176.554688 124.695312 C 176.164062 125.085938 175.9375 125.628906 175.9375 126.183594 L 175.9375 144.980469 C 175.9375 145.535156 176.164062 146.078125 176.554688 146.46875 C 176.949219 146.859375 177.488281 147.085938 178.042969 147.085938 L 197.570312 147.085938 C 198.128906 147.085938 198.660156 146.867188 199.058594 146.46875 C 199.457031 146.070312 199.675781 145.542969 199.675781 144.980469 L 197.570312 144.980469 "/>
<path style=" stroke:none;fill-rule:nonzero;fill:rgb(100%,100%,100%);fill-opacity:1;" d="M 230.832031 144.980469 L 211.308594 144.980469 L 211.308594 126.183594 L 230.832031 126.183594 L 230.832031 144.980469 "/>
<path style=" stroke:none;fill-rule:nonzero;fill:rgb(1.179504%,59.609985%,61.959839%);fill-opacity:1;" d="M 230.832031 144.980469 L 230.832031 142.875 L 213.410156 142.875 L 213.410156 128.289062 L 228.726562 128.289062 L 228.726562 144.980469 L 230.832031 144.980469 L 230.832031 142.875 L 230.832031 144.980469 L 232.9375 144.980469 L 232.9375 126.183594 C 232.9375 125.621094 232.722656 125.09375 232.320312 124.695312 C 231.925781 124.296875 231.398438 124.078125 230.832031 124.078125 L 211.308594 124.078125 C 210.753906 124.078125 210.210938 124.304688 209.816406 124.695312 C 209.425781 125.085938 209.203125 125.628906 209.203125 126.183594 L 209.203125 144.980469 C 209.203125 145.535156 209.425781 146.078125 209.816406 146.46875 C 210.210938 146.859375 210.753906 147.085938 211.308594 147.085938 L 230.832031 147.085938 C 231.398438 147.085938 231.925781 146.867188 232.320312 146.46875 C 232.722656 146.070312 232.9375 145.542969 232.9375 144.980469 L 230.832031 144.980469 "/>
<path style=" stroke:none;fill-rule:nonzero;fill:rgb(100%,100%,100%);fill-opacity:1;" d="M 264.097656 144.980469 L 244.574219 144.980469 L 244.574219 126.183594 L 264.097656 126.183594 L 264.097656 144.980469 "/>
<path style=" stroke:none;fill-rule:nonzero;fill:rgb(1.179504%,59.609985%,61.959839%);fill-opacity:1;" d="M 264.097656 144.980469 L 264.097656 142.875 L 246.679688 142.875 L 246.679688 128.289062 L 261.992188 128.289062 L 261.992188 144.980469 L 264.097656 144.980469 L 264.097656 142.875 L 264.097656 144.980469 L 266.203125 144.980469 L 266.203125 126.183594 C 266.203125 125.621094 265.984375 125.09375 265.585938 124.695312 C 265.191406 124.296875 264.660156 124.078125 264.097656 124.078125 L 244.574219 124.078125 C 244.019531 124.078125 243.476562 124.304688 243.085938 124.695312 C 242.691406 125.085938 242.46875 125.628906 242.46875 126.183594 L 242.46875 144.980469 C 242.46875 145.535156 242.695312 146.078125 243.085938 146.46875 C 243.476562 146.859375 244.019531 147.085938 244.574219 147.085938 L 264.097656 147.085938 C 264.660156 147.085938 265.191406 146.867188 265.585938 146.46875 C 265.984375 146.070312 266.203125 145.542969 266.203125 144.980469 L 264.097656 144.980469 "/>
<path style=" stroke:none;fill-rule:nonzero;fill:rgb(100%,100%,100%);fill-opacity:1;" d="M 297.363281 144.980469 L 277.835938 144.980469 L 277.835938 126.183594 L 297.363281 126.183594 L 297.363281 144.980469 "/>
<path style=" stroke:none;fill-rule:nonzero;fill:rgb(1.179504%,59.609985%,61.959839%);fill-opacity:1;" d="M 297.363281 144.980469 L 297.363281 142.875 L 279.941406 142.875 L 279.941406 128.289062 L 295.257812 128.289062 L 295.257812 144.980469 L 297.363281 144.980469 L 297.363281 142.875 L 297.363281 144.980469 L 299.46875 144.980469 L 299.46875 126.183594 C 299.46875 125.621094 299.246094 125.09375 298.851562 124.695312 C 298.453125 124.296875 297.921875 124.078125 297.363281 124.078125 L 277.835938 124.078125 C 277.28125 124.078125 276.738281 124.304688 276.347656 124.695312 C 275.957031 125.085938 275.730469 125.628906 275.730469 126.183594 L 275.730469 144.980469 C 275.730469 145.535156 275.957031 146.078125 276.347656 146.46875 C 276.738281 146.859375 277.28125 147.085938 277.835938 147.085938 L 297.363281 147.085938 C 297.921875 147.085938 298.453125 146.867188 298.851562 146.46875 C 299.246094 146.070312 299.46875 145.542969 299.46875 144.980469 L 297.363281 144.980469 "/>
<path style=" stroke:none;fill-rule:nonzero;fill:rgb(100%,100%,100%);fill-opacity:1;" d="M 330.625 144.980469 L 311.105469 144.980469 L 311.105469 126.183594 L 330.625 126.183594 L 330.625 144.980469 "/>
<path style=" stroke:none;fill-rule:nonzero;fill:rgb(1.179504%,59.609985%,61.959839%);fill-opacity:1;" d="M 330.625 144.980469 L 330.625 142.875 L 313.207031 142.875 L 313.207031 128.289062 L 328.519531 128.289062 L 328.519531 144.980469 L 330.625 144.980469 L 330.625 142.875 L 330.625 144.980469 L 332.730469 144.980469 L 332.730469 126.183594 C 332.730469 125.621094 332.515625 125.09375 332.113281 124.695312 C 331.71875 124.296875 331.191406 124.078125 330.625 124.078125 L 311.105469 124.078125 C 310.546875 124.078125 310.003906 124.304688 309.609375 124.695312 C 309.21875 125.085938 309 125.628906 309 126.183594 L 309 144.980469 C 309 145.535156 309.21875 146.078125 309.609375 146.46875 C 310.003906 146.859375 310.546875 147.085938 311.105469 147.085938 L 330.625 147.085938 C 331.191406 147.085938 331.71875 146.867188 332.113281 146.46875 C 332.515625 146.070312 332.730469 145.542969 332.730469 144.980469 L 330.625 144.980469 "/>
<path style=" stroke:none;fill-rule:nonzero;fill:rgb(100%,100%,100%);fill-opacity:1;" d="M 363.890625 144.980469 L 344.363281 144.980469 L 344.363281 126.183594 L 363.890625 126.183594 L 363.890625 144.980469 "/>
<path style=" stroke:none;fill-rule:nonzero;fill:rgb(1.179504%,59.609985%,61.959839%);fill-opacity:1;" d="M 363.890625 144.980469 L 363.890625 142.875 L 346.46875 142.875 L 346.46875 128.289062 L 361.785156 128.289062 L 361.785156 144.980469 L 363.890625 144.980469 L 363.890625 142.875 L 363.890625 144.980469 L 365.992188 144.980469 L 365.992188 126.183594 C 365.992188 125.621094 365.773438 125.09375 365.378906 124.695312 C 364.980469 124.296875 364.449219 124.078125 363.890625 124.078125 L 344.363281 124.078125 C 343.808594 124.078125 343.265625 124.304688 342.875 124.695312 C 342.484375 125.085938 342.257812 125.628906 342.257812 126.183594 L 342.257812 144.980469 C 342.257812 145.535156 342.484375 146.078125 342.875 146.46875 C 343.265625 146.859375 343.808594 147.085938 344.363281 147.085938 L 363.890625 147.085938 C 364.449219 147.085938 364.980469 146.867188 365.378906 146.46875 C 365.773438 146.070312 365.992188 145.542969 365.992188 144.980469 L 363.890625 144.980469 "/>
<path style=" stroke:none;fill-rule:nonzero;fill:rgb(100%,100%,100%);fill-opacity:1;" d="M 31.25 174.617188 L 11.726562 174.617188 L 11.726562 155.824219 L 31.25 155.824219 L 31.25 174.617188 "/>
<path style=" stroke:none;fill-rule:nonzero;fill:rgb(1.179504%,59.609985%,61.959839%);fill-opacity:1;" d="M 31.25 174.617188 L 31.25 172.511719 L 13.828125 172.511719 L 13.828125 157.929688 L 29.144531 157.929688 L 29.144531 174.617188 L 31.25 174.617188 L 31.25 172.511719 L 31.25 174.617188 L 33.355469 174.617188 L 33.355469 155.824219 C 33.355469 155.261719 33.136719 154.734375 32.738281 154.335938 C 32.339844 153.9375 31.8125 153.71875 31.25 153.71875 L 11.726562 153.71875 C 11.171875 153.71875 10.628906 153.945312 10.234375 154.335938 C 9.84375 154.726562 9.621094 155.269531 9.621094 155.824219 L 9.621094 174.617188 C 9.621094 175.171875 9.84375 175.714844 10.234375 176.105469 C 10.628906 176.5 11.171875 176.722656 11.726562 176.722656 L 31.25 176.722656 C 31.8125 176.722656 32.339844 176.503906 32.738281 176.105469 C 33.136719 175.710938 33.355469 175.179688 33.355469 174.617188 L 31.25 174.617188 "/>
<path style=" stroke:none;fill-rule:nonzero;fill:rgb(100%,100%,100%);fill-opacity:1;" d="M 64.519531 174.617188 L 44.992188 174.617188 L 44.992188 155.824219 L 64.519531 155.824219 L 64.519531 174.617188 "/>
<path style=" stroke:none;fill-rule:nonzero;fill:rgb(1.179504%,59.609985%,61.959839%);fill-opacity:1;" d="M 64.519531 174.617188 L 64.519531 172.511719 L 47.097656 172.511719 L 47.097656 157.929688 L 62.414062 157.929688 L 62.414062 174.617188 L 64.519531 174.617188 L 64.519531 172.511719 L 64.519531 174.617188 L 66.621094 174.617188 L 66.621094 155.824219 C 66.621094 155.261719 66.402344 154.734375 66.007812 154.335938 C 65.609375 153.9375 65.078125 153.71875 64.519531 153.71875 L 44.992188 153.71875 C 44.4375 153.71875 43.894531 153.945312 43.503906 154.335938 C 43.113281 154.726562 42.886719 155.269531 42.886719 155.824219 L 42.886719 174.617188 C 42.886719 175.171875 43.113281 175.714844 43.503906 176.105469 C 43.894531 176.5 44.4375 176.722656 44.992188 176.722656 L 64.519531 176.722656 C 65.078125 176.722656 65.609375 176.503906 66.007812 176.105469 C 66.402344 175.710938 66.621094 175.179688 66.621094 174.617188 L 64.519531 174.617188 "/>
<path style=" stroke:none;fill-rule:nonzero;fill:rgb(100%,100%,100%);fill-opacity:1;" d="M 97.78125 174.617188 L 78.257812 174.617188 L 78.257812 155.824219 L 97.78125 155.824219 L 97.78125 174.617188 "/>
<path style=" stroke:none;fill-rule:nonzero;fill:rgb(1.179504%,59.609985%,61.959839%);fill-opacity:1;" d="M 97.78125 174.617188 L 97.78125 172.511719 L 80.359375 172.511719 L 80.359375 157.929688 L 95.675781 157.929688 L 95.675781 174.617188 L 97.78125 174.617188 L 97.78125 172.511719 L 97.78125 174.617188 L 99.886719 174.617188 L 99.886719 155.824219 C 99.886719 155.261719 99.667969 154.734375 99.269531 154.335938 C 98.871094 153.9375 98.34375 153.71875 97.78125 153.71875 L 78.257812 153.71875 C 77.703125 153.71875 77.160156 153.945312 76.765625 154.335938 C 76.375 154.726562 76.152344 155.269531 76.152344 155.824219 L 76.152344 174.617188 C 76.152344 175.171875 76.375 175.714844 76.765625 176.105469 C 77.160156 176.5 77.703125 176.722656 78.257812 176.722656 L 97.78125 176.722656 C 98.34375 176.722656 98.871094 176.503906 99.269531 176.105469 C 99.667969 175.710938 99.886719 175.179688 99.886719 174.617188 L 97.78125 174.617188 "/>
<path style=" stroke:none;fill-rule:nonzero;fill:rgb(100%,100%,100%);fill-opacity:1;" d="M 131.039062 174.617188 L 111.515625 174.617188 L 111.515625 155.824219 L 131.039062 155.824219 L 131.039062 174.617188 "/>
<path style=" stroke:none;fill-rule:nonzero;fill:rgb(1.179504%,59.609985%,61.959839%);fill-opacity:1;" d="M 131.039062 174.617188 L 131.039062 172.511719 L 113.621094 172.511719 L 113.621094 157.929688 L 128.933594 157.929688 L 128.933594 174.617188 L 131.039062 174.617188 L 131.039062 172.511719 L 131.039062 174.617188 L 133.144531 174.617188 L 133.144531 155.824219 C 133.144531 155.261719 132.925781 154.734375 132.527344 154.335938 C 132.132812 153.9375 131.601562 153.71875 131.039062 153.71875 L 111.515625 153.71875 C 110.964844 153.71875 110.421875 153.945312 110.027344 154.335938 C 109.636719 154.726562 109.410156 155.269531 109.410156 155.824219 L 109.410156 174.617188 C 109.410156 175.171875 109.636719 175.714844 110.027344 176.105469 C 110.421875 176.5 110.964844 176.722656 111.515625 176.722656 L 131.039062 176.722656 C 131.601562 176.722656 132.132812 176.503906 132.527344 176.105469 C 132.925781 175.710938 133.144531 175.179688 133.144531 174.617188 L 131.039062 174.617188 "/>
<path style=" stroke:none;fill-rule:nonzero;fill:rgb(100%,100%,100%);fill-opacity:1;" d="M 164.304688 174.617188 L 144.78125 174.617188 L 144.78125 155.824219 L 164.304688 155.824219 L 164.304688 174.617188 "/>
<path style=" stroke:none;fill-rule:nonzero;fill:rgb(1.179504%,59.609985%,61.959839%);fill-opacity:1;" d="M 164.304688 174.617188 L 164.304688 172.511719 L 146.886719 172.511719 L 146.886719 157.929688 L 162.199219 157.929688 L 162.199219 174.617188 L 164.304688 174.617188 L 164.304688 172.511719 L 164.304688 174.617188 L 166.410156 174.617188 L 166.410156 155.824219 C 166.410156 155.261719 166.191406 154.734375 165.792969 154.335938 C 165.398438 153.9375 164.867188 153.71875 164.304688 153.71875 L 144.78125 153.71875 C 144.226562 153.71875 143.683594 153.945312 143.292969 154.335938 C 142.898438 154.726562 142.675781 155.269531 142.675781 155.824219 L 142.675781 174.617188 C 142.675781 175.171875 142.902344 175.714844 143.292969 176.105469 C 143.683594 176.5 144.226562 176.722656 144.78125 176.722656 L 164.304688 176.722656 C 164.867188 176.722656 165.398438 176.503906 165.792969 176.105469 C 166.191406 175.710938 166.410156 175.179688 166.410156 174.617188 L 164.304688 174.617188 "/>
<path style=" stroke:none;fill-rule:nonzero;fill:rgb(100%,100%,100%);fill-opacity:1;" d="M 197.570312 174.617188 L 178.042969 174.617188 L 178.042969 155.824219 L 197.570312 155.824219 L 197.570312 174.617188 "/>
<path style=" stroke:none;fill-rule:nonzero;fill:rgb(1.179504%,59.609985%,61.959839%);fill-opacity:1;" d="M 197.570312 174.617188 L 197.570312 172.511719 L 180.148438 172.511719 L 180.148438 157.929688 L 195.464844 157.929688 L 195.464844 174.617188 L 197.570312 174.617188 L 197.570312 172.511719 L 197.570312 174.617188 L 199.675781 174.617188 L 199.675781 155.824219 C 199.675781 155.261719 199.457031 154.734375 199.058594 154.335938 C 198.660156 153.9375 198.128906 153.71875 197.570312 153.71875 L 178.042969 153.71875 C 177.488281 153.71875 176.949219 153.945312 176.554688 154.335938 C 176.164062 154.726562 175.9375 155.269531 175.9375 155.824219 L 175.9375 174.617188 C 175.9375 175.171875 176.164062 175.714844 176.554688 176.105469 C 176.949219 176.5 177.488281 176.722656 178.042969 176.722656 L 197.570312 176.722656 C 198.128906 176.722656 198.660156 176.503906 199.058594 176.105469 C 199.457031 175.710938 199.675781 175.179688 199.675781 174.617188 L 197.570312 174.617188 "/>
<path style=" stroke:none;fill-rule:nonzero;fill:rgb(100%,100%,100%);fill-opacity:1;" d="M 230.832031 174.617188 L 211.308594 174.617188 L 211.308594 155.824219 L 230.832031 155.824219 L 230.832031 174.617188 "/>
<path style=" stroke:none;fill-rule:nonzero;fill:rgb(1.179504%,59.609985%,61.959839%);fill-opacity:1;" d="M 230.832031 174.617188 L 230.832031 172.511719 L 213.410156 172.511719 L 213.410156 157.929688 L 228.726562 157.929688 L 228.726562 174.617188 L 230.832031 174.617188 L 230.832031 172.511719 L 230.832031 174.617188 L 232.9375 174.617188 L 232.9375 155.824219 C 232.9375 155.261719 232.722656 154.734375 232.320312 154.335938 C 231.925781 153.9375 231.398438 153.71875 230.832031 153.71875 L 211.308594 153.71875 C 210.753906 153.71875 210.210938 153.945312 209.816406 154.335938 C 209.425781 154.726562 209.203125 155.269531 209.203125 155.824219 L 209.203125 174.617188 C 209.203125 175.171875 209.425781 175.714844 209.816406 176.105469 C 210.210938 176.5 210.753906 176.722656 211.308594 176.722656 L 230.832031 176.722656 C 231.398438 176.722656 231.925781 176.503906 232.320312 176.105469 C 232.722656 175.710938 232.9375 175.179688 232.9375 174.617188 L 230.832031 174.617188 "/>
<path style=" stroke:none;fill-rule:nonzero;fill:rgb(100%,100%,100%);fill-opacity:1;" d="M 264.097656 174.617188 L 244.574219 174.617188 L 244.574219 155.824219 L 264.097656 155.824219 L 264.097656 174.617188 "/>
<path style=" stroke:none;fill-rule:nonzero;fill:rgb(1.179504%,59.609985%,61.959839%);fill-opacity:1;" d="M 264.097656 174.617188 L 264.097656 172.511719 L 246.679688 172.511719 L 246.679688 157.929688 L 261.992188 157.929688 L 261.992188 174.617188 L 264.097656 174.617188 L 264.097656 172.511719 L 264.097656 174.617188 L 266.203125 174.617188 L 266.203125 155.824219 C 266.203125 155.261719 265.984375 154.734375 265.585938 154.335938 C 265.191406 153.9375 264.660156 153.71875 264.097656 153.71875 L 244.574219 153.71875 C 244.019531 153.71875 243.476562 153.945312 243.085938 154.335938 C 242.691406 154.726562 242.46875 155.269531 242.46875 155.824219 L 242.46875 174.617188 C 242.46875 175.171875 242.695312 175.714844 243.085938 176.105469 C 243.476562 176.5 244.019531 176.722656 244.574219 176.722656 L 264.097656 176.722656 C 264.660156 176.722656 265.191406 176.503906 265.585938 176.105469 C 265.984375 175.710938 266.203125 175.179688 266.203125 174.617188 L 264.097656 174.617188 "/>
<path style=" stroke:none;fill-rule:nonzero;fill:rgb(100%,100%,100%);fill-opacity:1;" d="M 297.363281 174.617188 L 277.835938 174.617188 L 277.835938 155.824219 L 297.363281 155.824219 L 297.363281 174.617188 "/>
<path style=" stroke:none;fill-rule:nonzero;fill:rgb(1.179504%,59.609985%,61.959839%);fill-opacity:1;" d="M 297.363281 174.617188 L 297.363281 172.511719 L 279.941406 172.511719 L 279.941406 157.929688 L 295.257812 157.929688 L 295.257812 174.617188 L 297.363281 174.617188 L 297.363281 172.511719 L 297.363281 174.617188 L 299.46875 174.617188 L 299.46875 155.824219 C 299.46875 155.261719 299.246094 154.734375 298.851562 154.335938 C 298.453125 153.9375 297.921875 153.71875 297.363281 153.71875 L 277.835938 153.71875 C 277.28125 153.71875 276.738281 153.945312 276.347656 154.335938 C 275.957031 154.726562 275.730469 155.269531 275.730469 155.824219 L 275.730469 174.617188 C 275.730469 175.171875 275.957031 175.714844 276.347656 176.105469 C 276.738281 176.5 277.28125 176.722656 277.835938 176.722656 L 297.363281 176.722656 C 297.921875 176.722656 298.453125 176.503906 298.851562 176.105469 C 299.246094 175.710938 299.46875 175.179688 299.46875 174.617188 L 297.363281 174.617188 "/>
<path style=" stroke:none;fill-rule:nonzero;fill:rgb(100%,100%,100%);fill-opacity:1;" d="M 363.890625 174.617188 L 309.652344 174.617188 L 309.652344 155.824219 L 363.890625 155.824219 L 363.890625 174.617188 "/>
<path style=" stroke:none;fill-rule:nonzero;fill:rgb(1.179504%,59.609985%,61.959839%);fill-opacity:1;" d="M 363.890625 174.617188 L 363.890625 172.511719 L 311.757812 172.511719 L 311.757812 157.929688 L 361.785156 157.929688 L 361.785156 174.617188 L 363.890625 174.617188 L 363.890625 172.511719 L 363.890625 174.617188 L 365.992188 174.617188 L 365.992188 155.824219 C 365.992188 155.261719 365.773438 154.734375 365.378906 154.335938 C 364.980469 153.9375 364.449219 153.71875 363.890625 153.71875 L 309.652344 153.71875 C 309.097656 153.71875 308.554688 153.945312 308.164062 154.335938 C 307.773438 154.726562 307.546875 155.269531 307.546875 155.824219 L 307.546875 174.617188 C 307.546875 175.171875 307.773438 175.714844 308.164062 176.105469 C 308.554688 176.5 309.097656 176.722656 309.652344 176.722656 L 363.890625 176.722656 C 364.449219 176.722656 364.980469 176.503906 365.378906 176.105469 C 365.773438 175.710938 365.992188 175.179688 365.992188 174.617188 L 363.890625 174.617188 "/>
<path style=" stroke:none;fill-rule:nonzero;fill:rgb(100%,100%,100%);fill-opacity:1;" d="M 65.960938 204.257812 L 11.726562 204.257812 L 11.726562 185.464844 L 65.960938 185.464844 L 65.960938 204.257812 "/>
<path style=" stroke:none;fill-rule:nonzero;fill:rgb(1.179504%,59.609985%,61.959839%);fill-opacity:1;" d="M 65.960938 204.257812 L 65.960938 202.152344 L 13.828125 202.152344 L 13.828125 187.5625 L 63.855469 187.5625 L 63.855469 204.257812 L 65.960938 204.257812 L 65.960938 202.152344 L 65.960938 204.257812 L 68.066406 204.257812 L 68.066406 185.464844 C 68.066406 184.898438 67.847656 184.371094 67.449219 183.976562 C 67.050781 183.578125 66.523438 183.359375 65.960938 183.359375 L 11.726562 183.359375 C 11.171875 183.359375 10.628906 183.582031 10.234375 183.976562 C 9.84375 184.367188 9.621094 184.910156 9.621094 185.464844 L 9.621094 204.257812 C 9.621094 204.8125 9.84375 205.355469 10.234375 205.746094 C 10.628906 206.140625 11.171875 206.359375 11.726562 206.359375 L 65.960938 206.359375 C 66.523438 206.359375 67.050781 206.144531 67.449219 205.746094 C 67.847656 205.347656 68.066406 204.820312 68.066406 204.257812 L 65.960938 204.257812 "/>
<path style=" stroke:none;fill-rule:nonzero;fill:rgb(100%,100%,100%);fill-opacity:1;" d="M 97.78125 204.257812 L 78.257812 204.257812 L 78.257812 185.464844 L 97.78125 185.464844 L 97.78125 204.257812 "/>
<path style=" stroke:none;fill-rule:nonzero;fill:rgb(1.179504%,59.609985%,61.959839%);fill-opacity:1;" d="M 97.78125 204.257812 L 97.78125 202.152344 L 80.359375 202.152344 L 80.359375 187.570312 L 95.675781 187.570312 L 95.675781 204.257812 L 97.78125 204.257812 L 97.78125 202.152344 L 97.78125 204.257812 L 99.886719 204.257812 L 99.886719 185.464844 C 99.886719 184.898438 99.667969 184.371094 99.269531 183.976562 C 98.871094 183.578125 98.34375 183.359375 97.78125 183.359375 L 78.257812 183.359375 C 77.703125 183.359375 77.160156 183.582031 76.765625 183.976562 C 76.375 184.367188 76.152344 184.910156 76.152344 185.464844 L 76.152344 204.257812 C 76.152344 204.8125 76.375 205.355469 76.765625 205.746094 C 77.160156 206.140625 77.703125 206.359375 78.257812 206.359375 L 97.78125 206.359375 C 98.34375 206.359375 98.871094 206.144531 99.269531 205.746094 C 99.667969 205.347656 99.886719 204.820312 99.886719 204.257812 L 97.78125 204.257812 "/>
<path style=" stroke:none;fill-rule:nonzero;fill:rgb(100%,100%,100%);fill-opacity:1;" d="M 131.039062 204.257812 L 111.515625 204.257812 L 111.515625 185.464844 L 131.039062 185.464844 L 131.039062 204.257812 "/>
<path style=" stroke:none;fill-rule:nonzero;fill:rgb(1.179504%,59.609985%,61.959839%);fill-opacity:1;" d="M 131.039062 204.257812 L 131.039062 202.152344 L 113.621094 202.152344 L 113.621094 187.5625 L 128.933594 187.5625 L 128.933594 204.257812 L 131.039062 204.257812 L 131.039062 202.152344 L 131.039062 204.257812 L 133.144531 204.257812 L 133.144531 185.464844 C 133.144531 184.898438 132.925781 184.371094 132.527344 183.976562 C 132.132812 183.578125 131.601562 183.359375 131.039062 183.359375 L 111.515625 183.359375 C 110.964844 183.359375 110.421875 183.582031 110.027344 183.976562 C 109.636719 184.367188 109.410156 184.910156 109.410156 185.464844 L 109.410156 204.257812 C 109.410156 204.8125 109.636719 205.355469 110.027344 205.746094 C 110.421875 206.140625 110.964844 206.359375 111.515625 206.359375 L 131.039062 206.359375 C 131.601562 206.359375 132.132812 206.144531 132.527344 205.746094 C 132.925781 205.347656 133.144531 204.820312 133.144531 204.257812 L 131.039062 204.257812 "/>
<path style=" stroke:none;fill-rule:nonzero;fill:rgb(100%,100%,100%);fill-opacity:1;" d="M 164.304688 204.257812 L 144.78125 204.257812 L 144.78125 185.464844 L 164.304688 185.464844 L 164.304688 204.257812 "/>
<path style=" stroke:none;fill-rule:nonzero;fill:rgb(1.179504%,59.609985%,61.959839%);fill-opacity:1;" d="M 164.304688 204.257812 L 164.304688 202.152344 L 146.886719 202.152344 L 146.886719 187.570312 L 162.199219 187.570312 L 162.199219 204.257812 L 164.304688 204.257812 L 164.304688 202.152344 L 164.304688 204.257812 L 166.410156 204.257812 L 166.410156 185.464844 C 166.410156 184.898438 166.191406 184.371094 165.792969 183.976562 C 165.398438 183.578125 164.867188 183.359375 164.304688 183.359375 L 144.78125 183.359375 C 144.226562 183.359375 143.683594 183.582031 143.292969 183.976562 C 142.898438 184.367188 142.675781 184.910156 142.675781 185.464844 L 142.675781 204.257812 C 142.675781 204.8125 142.902344 205.355469 143.292969 205.746094 C 143.683594 206.140625 144.226562 206.359375 144.78125 206.359375 L 164.304688 206.359375 C 164.867188 206.359375 165.398438 206.144531 165.792969 205.746094 C 166.191406 205.347656 166.410156 204.820312 166.410156 204.257812 L 164.304688 204.257812 "/>
<path style=" stroke:none;fill-rule:nonzero;fill:rgb(100%,100%,100%);fill-opacity:1;" d="M 197.570312 204.257812 L 178.042969 204.257812 L 178.042969 185.464844 L 197.570312 185.464844 L 197.570312 204.257812 "/>
<path style=" stroke:none;fill-rule:nonzero;fill:rgb(1.179504%,59.609985%,61.959839%);fill-opacity:1;" d="M 197.570312 204.257812 L 197.570312 202.152344 L 180.148438 202.152344 L 180.148438 187.570312 L 195.464844 187.570312 L 195.464844 204.257812 L 197.570312 204.257812 L 197.570312 202.152344 L 197.570312 204.257812 L 199.675781 204.257812 L 199.675781 185.464844 C 199.675781 184.898438 199.457031 184.371094 199.058594 183.976562 C 198.660156 183.578125 198.128906 183.359375 197.570312 183.359375 L 178.042969 183.359375 C 177.488281 183.359375 176.949219 183.582031 176.554688 183.976562 C 176.164062 184.367188 175.9375 184.910156 175.9375 185.464844 L 175.9375 204.257812 C 175.9375 204.8125 176.164062 205.355469 176.554688 205.746094 C 176.949219 206.140625 177.488281 206.359375 178.042969 206.359375 L 197.570312 206.359375 C 198.128906 206.359375 198.660156 206.144531 199.058594 205.746094 C 199.457031 205.347656 199.675781 204.820312 199.675781 204.257812 L 197.570312 204.257812 "/>
<path style=" stroke:none;fill-rule:nonzero;fill:rgb(100%,100%,100%);fill-opacity:1;" d="M 230.832031 204.257812 L 211.308594 204.257812 L 211.308594 185.464844 L 230.832031 185.464844 L 230.832031 204.257812 "/>
<path style=" stroke:none;fill-rule:nonzero;fill:rgb(1.179504%,59.609985%,61.959839%);fill-opacity:1;" d="M 230.832031 204.257812 L 230.832031 202.152344 L 213.410156 202.152344 L 213.410156 187.5625 L 228.726562 187.5625 L 228.726562 204.257812 L 230.832031 204.257812 L 230.832031 202.152344 L 230.832031 204.257812 L 232.9375 204.257812 L 232.9375 185.464844 C 232.9375 184.898438 232.722656 184.371094 232.320312 183.976562 C 231.925781 183.578125 231.398438 183.359375 230.832031 183.359375 L 211.308594 183.359375 C 210.753906 183.359375 210.210938 183.582031 209.816406 183.976562 C 209.425781 184.367188 209.203125 184.910156 209.203125 185.464844 L 209.203125 204.257812 C 209.203125 204.8125 209.425781 205.355469 209.816406 205.746094 C 210.210938 206.140625 210.753906 206.359375 211.308594 206.359375 L 230.832031 206.359375 C 231.398438 206.359375 231.925781 206.144531 232.320312 205.746094 C 232.722656 205.347656 232.9375 204.820312 232.9375 204.257812 L 230.832031 204.257812 "/>
<path style=" stroke:none;fill-rule:nonzero;fill:rgb(100%,100%,100%);fill-opacity:1;" d="M 264.097656 204.257812 L 244.574219 204.257812 L 244.574219 185.464844 L 264.097656 185.464844 L 264.097656 204.257812 "/>
<path style=" stroke:none;fill-rule:nonzero;fill:rgb(1.179504%,59.609985%,61.959839%);fill-opacity:1;" d="M 264.097656 204.257812 L 264.097656 202.152344 L 246.679688 202.152344 L 246.679688 187.570312 L 261.992188 187.570312 L 261.992188 204.257812 L 264.097656 204.257812 L 264.097656 202.152344 L 264.097656 204.257812 L 266.203125 204.257812 L 266.203125 185.464844 C 266.203125 184.898438 265.984375 184.371094 265.585938 183.976562 C 265.191406 183.578125 264.660156 183.359375 264.097656 183.359375 L 244.574219 183.359375 C 244.019531 183.359375 243.476562 183.582031 243.085938 183.976562 C 242.691406 184.367188 242.46875 184.910156 242.46875 185.464844 L 242.46875 204.257812 C 242.46875 204.8125 242.695312 205.355469 243.085938 205.746094 C 243.476562 206.140625 244.019531 206.359375 244.574219 206.359375 L 264.097656 206.359375 C 264.660156 206.359375 265.191406 206.144531 265.585938 205.746094 C 265.984375 205.347656 266.203125 204.820312 266.203125 204.257812 L 264.097656 204.257812 "/>
<path style=" stroke:none;fill-rule:nonzero;fill:rgb(100%,100%,100%);fill-opacity:1;" d="M 297.363281 204.257812 L 277.835938 204.257812 L 277.835938 185.464844 L 297.363281 185.464844 L 297.363281 204.257812 "/>
<path style=" stroke:none;fill-rule:nonzero;fill:rgb(1.179504%,59.609985%,61.959839%);fill-opacity:1;" d="M 297.363281 204.257812 L 297.363281 202.152344 L 279.941406 202.152344 L 279.941406 187.570312 L 295.257812 187.570312 L 295.257812 204.257812 L 297.363281 204.257812 L 297.363281 202.152344 L 297.363281 204.257812 L 299.46875 204.257812 L 299.46875 185.464844 C 299.46875 184.898438 299.246094 184.371094 298.851562 183.976562 C 298.453125 183.578125 297.921875 183.359375 297.363281 183.359375 L 277.835938 183.359375 C 277.28125 183.359375 276.738281 183.582031 276.347656 183.976562 C 275.957031 184.367188 275.730469 184.910156 275.730469 185.464844 L 275.730469 204.257812 C 275.730469 204.8125 275.957031 205.355469 276.347656 205.746094 C 276.738281 206.140625 277.28125 206.359375 277.835938 206.359375 L 297.363281 206.359375 C 297.921875 206.359375 298.453125 206.144531 298.851562 205.746094 C 299.246094 205.347656 299.46875 204.820312 299.46875 204.257812 L 297.363281 204.257812 "/>
<path style=" stroke:none;fill-rule:nonzero;fill:rgb(100%,100%,100%);fill-opacity:1;" d="M 330.625 204.257812 L 311.105469 204.257812 L 311.105469 185.464844 L 330.625 185.464844 L 330.625 204.257812 "/>
<path style=" stroke:none;fill-rule:nonzero;fill:rgb(1.179504%,59.609985%,61.959839%);fill-opacity:1;" d="M 330.625 204.257812 L 330.625 202.152344 L 313.207031 202.152344 L 313.207031 187.5625 L 328.519531 187.5625 L 328.519531 204.257812 L 330.625 204.257812 L 330.625 202.152344 L 330.625 204.257812 L 332.730469 204.257812 L 332.730469 185.464844 C 332.730469 184.898438 332.515625 184.371094 332.113281 183.976562 C 331.71875 183.578125 331.191406 183.359375 330.625 183.359375 L 311.105469 183.359375 C 310.546875 183.359375 310.003906 183.582031 309.609375 183.976562 C 309.21875 184.367188 309 184.910156 309 185.464844 L 309 204.257812 C 309 204.8125 309.21875 205.355469 309.609375 205.746094 C 310.003906 206.140625 310.546875 206.359375 311.105469 206.359375 L 330.625 206.359375 C 331.191406 206.359375 331.71875 206.144531 332.113281 205.746094 C 332.515625 205.347656 332.730469 204.820312 332.730469 204.257812 L 330.625 204.257812 "/>
<path style=" stroke:none;fill-rule:nonzero;fill:rgb(100%,100%,100%);fill-opacity:1;" d="M 363.890625 204.257812 L 344.363281 204.257812 L 344.363281 185.464844 L 363.890625 185.464844 L 363.890625 204.257812 "/>
<path style=" stroke:none;fill-rule:nonzero;fill:rgb(1.179504%,59.609985%,61.959839%);fill-opacity:1;" d="M 363.890625 204.257812 L 363.890625 202.152344 L 346.46875 202.152344 L 346.46875 187.570312 L 361.785156 187.570312 L 361.785156 204.257812 L 363.890625 204.257812 L 363.890625 202.152344 L 363.890625 204.257812 L 365.992188 204.257812 L 365.992188 185.464844 C 365.992188 184.898438 365.773438 184.371094 365.378906 183.976562 C 364.980469 183.578125 364.449219 183.359375 363.890625 183.359375 L 344.363281 183.359375 C 343.808594 183.359375 343.265625 183.582031 342.875 183.976562 C 342.484375 184.367188 342.257812 184.910156 342.257812 185.464844 L 342.257812 204.257812 C 342.257812 204.8125 342.484375 205.355469 342.875 205.746094 C 343.265625 206.140625 343.808594 206.359375 344.363281 206.359375 L 363.890625 206.359375 C 364.449219 206.359375 364.980469 206.144531 365.378906 205.746094 C 365.773438 205.347656 365.992188 204.820312 365.992188 204.257812 L 363.890625 204.257812 "/>
<path style=" stroke:none;fill-rule:nonzero;fill:rgb(100%,100%,100%);fill-opacity:1;" d="M 31.25 233.894531 L 11.726562 233.894531 L 11.726562 215.097656 L 31.25 215.097656 L 31.25 233.894531 "/>
<path style=" stroke:none;fill-rule:nonzero;fill:rgb(1.179504%,59.609985%,61.959839%);fill-opacity:1;" d="M 31.25 233.894531 L 31.25 231.789062 L 13.828125 231.789062 L 13.828125 217.203125 L 29.144531 217.203125 L 29.144531 233.894531 L 31.25 233.894531 L 31.25 231.789062 L 31.25 233.894531 L 33.355469 233.894531 L 33.355469 215.097656 C 33.355469 214.539062 33.136719 214.007812 32.738281 213.609375 C 32.339844 213.214844 31.8125 212.992188 31.25 212.992188 L 11.726562 212.992188 C 11.171875 212.992188 10.628906 213.21875 10.234375 213.609375 C 9.84375 214.003906 9.621094 214.546875 9.621094 215.097656 L 9.621094 233.894531 C 9.621094 234.449219 9.84375 234.992188 10.234375 235.382812 C 10.628906 235.773438 11.171875 236 11.726562 236 L 31.25 236 C 31.8125 236 32.339844 235.78125 32.738281 235.382812 C 33.136719 234.984375 33.355469 234.457031 33.355469 233.894531 L 31.25 233.894531 "/>
<path style=" stroke:none;fill-rule:nonzero;fill:rgb(100%,100%,100%);fill-opacity:1;" d="M 64.519531 233.894531 L 44.992188 233.894531 L 44.992188 215.097656 L 64.519531 215.097656 L 64.519531 233.894531 "/>
<path style=" stroke:none;fill-rule:nonzero;fill:rgb(1.179504%,59.609985%,61.959839%);fill-opacity:1;" d="M 64.519531 233.894531 L 64.519531 231.789062 L 47.097656 231.789062 L 47.097656 217.203125 L 62.414062 217.203125 L 62.414062 233.894531 L 64.519531 233.894531 L 64.519531 231.789062 L 64.519531 233.894531 L 66.621094 233.894531 L 66.621094 215.097656 C 66.621094 214.539062 66.402344 214.007812 66.007812 213.609375 C 65.609375 213.214844 65.078125 212.992188 64.519531 212.992188 L 44.992188 212.992188 C 44.4375 212.992188 43.894531 213.21875 43.503906 213.609375 C 43.113281 214.003906 42.886719 214.546875 42.886719 215.097656 L 42.886719 233.894531 C 42.886719 234.449219 43.113281 234.992188 43.503906 235.382812 C 43.894531 235.773438 44.4375 236 44.992188 236 L 64.519531 236 C 65.078125 236 65.609375 235.78125 66.007812 235.382812 C 66.402344 234.984375 66.621094 234.457031 66.621094 233.894531 L 64.519531 233.894531 "/>
<path style=" stroke:none;fill-rule:nonzero;fill:rgb(100%,100%,100%);fill-opacity:1;" d="M 97.78125 233.894531 L 78.257812 233.894531 L 78.257812 215.097656 L 97.78125 215.097656 L 97.78125 233.894531 "/>
<path style=" stroke:none;fill-rule:nonzero;fill:rgb(1.179504%,59.609985%,61.959839%);fill-opacity:1;" d="M 97.78125 233.894531 L 97.78125 231.789062 L 80.359375 231.789062 L 80.359375 217.203125 L 95.675781 217.203125 L 95.675781 233.894531 L 97.78125 233.894531 L 97.78125 231.789062 L 97.78125 233.894531 L 99.886719 233.894531 L 99.886719 215.097656 C 99.886719 214.539062 99.667969 214.007812 99.269531 213.609375 C 98.871094 213.214844 98.34375 212.992188 97.78125 212.992188 L 78.257812 212.992188 C 77.703125 212.992188 77.160156 213.21875 76.765625 213.609375 C 76.375 214.003906 76.152344 214.546875 76.152344 215.097656 L 76.152344 233.894531 C 76.152344 234.449219 76.375 234.992188 76.765625 235.382812 C 77.160156 235.773438 77.703125 236 78.257812 236 L 97.78125 236 C 98.34375 236 98.871094 235.78125 99.269531 235.382812 C 99.667969 234.984375 99.886719 234.457031 99.886719 233.894531 L 97.78125 233.894531 "/>
<path style=" stroke:none;fill-rule:nonzero;fill:rgb(100%,100%,100%);fill-opacity:1;" d="M 230.832031 233.894531 L 111.515625 233.894531 L 111.515625 215.097656 L 230.832031 215.097656 L 230.832031 233.894531 "/>
<path style=" stroke:none;fill-rule:nonzero;fill:rgb(1.179504%,59.609985%,61.959839%);fill-opacity:1;" d="M 230.832031 233.894531 L 230.832031 231.789062 L 113.621094 231.789062 L 113.621094 217.203125 L 228.726562 217.203125 L 228.726562 233.894531 L 230.832031 233.894531 L 230.832031 231.789062 L 230.832031 233.894531 L 232.9375 233.894531 L 232.9375 215.097656 C 232.9375 214.539062 232.722656 214.007812 232.320312 213.609375 C 231.925781 213.214844 231.398438 212.992188 230.832031 212.992188 L 111.515625 212.992188 C 110.964844 212.992188 110.421875 213.21875 110.027344 213.609375 C 109.636719 214.003906 109.410156 214.546875 109.410156 215.097656 L 109.410156 233.894531 C 109.410156 234.449219 109.636719 234.992188 110.027344 235.382812 C 110.421875 235.773438 110.964844 236 111.515625 236 L 230.832031 236 C 231.398438 236 231.925781 235.78125 232.320312 235.382812 C 232.722656 234.984375 232.9375 234.457031 232.9375 233.894531 L 230.832031 233.894531 "/>
<path style=" stroke:none;fill-rule:nonzero;fill:rgb(100%,100%,100%);fill-opacity:1;" d="M 264.097656 233.894531 L 244.574219 233.894531 L 244.574219 215.097656 L 264.097656 215.097656 L 264.097656 233.894531 "/>
<path style=" stroke:none;fill-rule:nonzero;fill:rgb(1.179504%,59.609985%,61.959839%);fill-opacity:1;" d="M 264.097656 233.894531 L 264.097656 231.789062 L 246.679688 231.789062 L 246.679688 217.203125 L 261.992188 217.203125 L 261.992188 233.894531 L 264.097656 233.894531 L 264.097656 231.789062 L 264.097656 233.894531 L 266.203125 233.894531 L 266.203125 215.097656 C 266.203125 214.539062 265.984375 214.007812 265.585938 213.609375 C 265.191406 213.214844 264.660156 212.992188 264.097656 212.992188 L 244.574219 212.992188 C 244.019531 212.992188 243.476562 213.21875 243.085938 213.609375 C 242.691406 214.003906 242.46875 214.546875 242.46875 215.097656 L 242.46875 233.894531 C 242.46875 234.449219 242.695312 234.992188 243.085938 235.382812 C 243.476562 235.773438 244.019531 236 244.574219 236 L 264.097656 236 C 264.660156 236 265.191406 235.78125 265.585938 235.382812 C 265.984375 234.984375 266.203125 234.457031 266.203125 233.894531 L 264.097656 233.894531 "/>
<path style=" stroke:none;fill-rule:nonzero;fill:rgb(100%,100%,100%);fill-opacity:1;" d="M 297.363281 233.894531 L 277.835938 233.894531 L 277.835938 215.097656 L 297.363281 215.097656 L 297.363281 233.894531 "/>
<path style=" stroke:none;fill-rule:nonzero;fill:rgb(1.179504%,59.609985%,61.959839%);fill-opacity:1;" d="M 297.363281 233.894531 L 297.363281 231.789062 L 279.941406 231.789062 L 279.941406 217.203125 L 295.257812 217.203125 L 295.257812 233.894531 L 297.363281 233.894531 L 297.363281 231.789062 L 297.363281 233.894531 L 299.46875 233.894531 L 299.46875 215.097656 C 299.46875 214.539062 299.246094 214.007812 298.851562 213.609375 C 298.453125 213.214844 297.921875 212.992188 297.363281 212.992188 L 277.835938 212.992188 C 277.28125 212.992188 276.738281 213.21875 276.347656 213.609375 C 275.957031 214.003906 275.730469 214.546875 275.730469 215.097656 L 275.730469 233.894531 C 275.730469 234.449219 275.957031 234.992188 276.347656 235.382812 C 276.738281 235.773438 277.28125 236 277.835938 236 L 297.363281 236 C 297.921875 236 298.453125 235.78125 298.851562 235.382812 C 299.246094 234.984375 299.46875 234.457031 299.46875 233.894531 L 297.363281 233.894531 "/>
<path style=" stroke:none;fill-rule:nonzero;fill:rgb(100%,100%,100%);fill-opacity:1;" d="M 330.625 233.894531 L 311.105469 233.894531 L 311.105469 215.097656 L 330.625 215.097656 L 330.625 233.894531 "/>
<path style=" stroke:none;fill-rule:nonzero;fill:rgb(1.179504%,59.609985%,61.959839%);fill-opacity:1;" d="M 330.625 233.894531 L 330.625 231.789062 L 313.207031 231.789062 L 313.207031 217.203125 L 328.519531 217.203125 L 328.519531 233.894531 L 330.625 233.894531 L 330.625 231.789062 L 330.625 233.894531 L 332.730469 233.894531 L 332.730469 215.097656 C 332.730469 214.539062 332.515625 214.007812 332.113281 213.609375 C 331.71875 213.214844 331.191406 212.992188 330.625 212.992188 L 311.105469 212.992188 C 310.546875 212.992188 310.003906 213.21875 309.609375 213.609375 C 309.21875 214.003906 309 214.546875 309 215.097656 L 309 233.894531 C 309 234.449219 309.21875 234.992188 309.609375 235.382812 C 310.003906 235.773438 310.546875 236 311.105469 236 L 330.625 236 C 331.191406 236 331.71875 235.78125 332.113281 235.382812 C 332.515625 234.984375 332.730469 234.457031 332.730469 233.894531 L 330.625 233.894531 "/>
<path style=" stroke:none;fill-rule:nonzero;fill:rgb(100%,100%,100%);fill-opacity:1;" d="M 363.890625 233.894531 L 344.363281 233.894531 L 344.363281 215.097656 L 363.890625 215.097656 L 363.890625 233.894531 "/>
<path style=" stroke:none;fill-rule:nonzero;fill:rgb(1.179504%,59.609985%,61.959839%);fill-opacity:1;" d="M 363.890625 233.894531 L 363.890625 231.789062 L 346.46875 231.789062 L 346.46875 217.203125 L 361.785156 217.203125 L 361.785156 233.894531 L 363.890625 233.894531 L 363.890625 231.789062 L 363.890625 233.894531 L 365.992188 233.894531 L 365.992188 215.097656 C 365.992188 214.539062 365.773438 214.007812 365.378906 213.609375 C 364.980469 213.214844 364.449219 212.992188 363.890625 212.992188 L 344.363281 212.992188 C 343.808594 212.992188 343.265625 213.21875 342.875 213.609375 C 342.484375 214.003906 342.257812 214.546875 342.257812 215.097656 L 342.257812 233.894531 C 342.257812 234.449219 342.484375 234.992188 342.875 235.382812 C 343.265625 235.773438 343.808594 236 344.363281 236 L 363.890625 236 C 364.449219 236 364.980469 235.78125 365.378906 235.382812 C 365.773438 234.984375 365.992188 234.457031 365.992188 233.894531 L 363.890625 233.894531 "/>
<path style=" stroke:none;fill-rule:nonzero;fill:rgb(100%,100%,100%);fill-opacity:1;" d="M 313.886719 296.269531 C 325.675781 274.78125 322.382812 234.359375 321.785156 226.292969 C 321.785156 226.292969 319.683594 175.085938 318.476562 167.113281 C 317.273438 159.152344 310.25 157.460938 310.75 167.355469 C 311.070312 173.734375 309.882812 198.234375 308.992188 214.867188 C 307.875 214.609375 306.710938 214.378906 305.464844 214.179688 C 305.066406 196.714844 304.226562 159.414062 304.226562 152.257812 C 304.226562 142.84375 295.535156 142.355469 295.050781 150.808594 C 294.691406 157.144531 292.566406 194.714844 291.535156 213.109375 C 290.433594 213.074219 289.316406 213.054688 288.171875 213.039062 C 287.726562 192.695312 286.757812 149.242188 286.359375 140.078125 C 285.875 128.980469 275.972656 127.523438 275.492188 140.078125 C 275.089844 150.496094 274.234375 194.503906 273.863281 214.105469 C 272.902344 214.285156 271.941406 214.472656 270.984375 214.683594 C 270.605469 199.363281 269.628906 161.566406 268.957031 152.148438 C 268.003906 138.871094 257.550781 141.050781 257.550781 152.148438 C 257.550781 161.160156 254.238281 219.332031 254.238281 219.332031 L 248.4375 236.648438 C 248.4375 236.648438 238.414062 239.4375 233.636719 234.230469 C 227.3125 227.355469 222.1875 220.921875 215.277344 219.105469 C 209.160156 217.496094 200.214844 225.03125 206.007812 231.960938 C 211.804688 238.890625 242.644531 288.566406 242.644531 288.566406 C 246.5625 293.148438 253.433594 298.503906 259.9375 302.464844 C 265.535156 305.878906 256.582031 353.003906 259.550781 353.003906 C 265.4375 353.003906 315.050781 358.378906 321.785156 351.554688 C 322.746094 350.585938 313.238281 297.453125 313.886719 296.269531 "/>
<path style=" stroke:none;fill-rule:nonzero;fill:rgb(1.179504%,59.609985%,61.959839%);fill-opacity:1;" d="M 313.886719 296.269531 L 315.734375 297.285156 C 319.515625 290.378906 321.734375 281.851562 323.054688 273.070312 C 324.371094 264.296875 324.765625 255.269531 324.765625 247.417969 C 324.765625 237.402344 324.117188 229.277344 323.886719 226.136719 L 321.785156 226.292969 L 323.890625 226.207031 C 323.890625 226.203125 323.363281 213.398438 322.6875 199.589844 C 322.347656 192.683594 321.972656 185.527344 321.601562 179.59375 C 321.421875 176.625 321.238281 173.960938 321.066406 171.78125 C 320.886719 169.589844 320.722656 167.910156 320.558594 166.800781 C 320.195312 164.429688 319.386719 162.464844 318.257812 160.988281 C 317.695312 160.253906 317.046875 159.636719 316.296875 159.175781 C 315.550781 158.722656 314.683594 158.421875 313.753906 158.421875 C 312.957031 158.417969 312.136719 158.65625 311.453125 159.101562 C 310.417969 159.773438 309.71875 160.8125 309.273438 162.019531 C 308.832031 163.242188 308.621094 164.675781 308.617188 166.378906 C 308.617188 166.726562 308.628906 167.09375 308.648438 167.472656 L 308.648438 167.464844 C 308.679688 168.128906 308.699219 169.066406 308.699219 170.203125 C 308.699219 174.636719 308.441406 182.113281 308.089844 190.292969 C 307.734375 198.480469 307.28125 207.390625 306.886719 214.757812 L 308.992188 214.867188 L 309.46875 212.816406 C 308.308594 212.546875 307.089844 212.304688 305.792969 212.101562 L 305.464844 214.179688 L 307.570312 214.132812 C 307.375 205.402344 307.0625 191.710938 306.800781 179.308594 C 306.542969 166.917969 306.332031 155.785156 306.332031 152.257812 C 306.332031 149.441406 305.648438 147.132812 304.433594 145.441406 C 303.820312 144.597656 303.070312 143.910156 302.21875 143.4375 C 301.367188 142.964844 300.414062 142.707031 299.457031 142.707031 C 298.597656 142.707031 297.738281 142.914062 296.960938 143.304688 C 295.789062 143.898438 294.8125 144.894531 294.136719 146.152344 C 293.453125 147.414062 293.050781 148.9375 292.949219 150.691406 C 292.589844 157.027344 290.460938 194.59375 289.429688 212.988281 L 291.535156 213.109375 L 291.59375 211.003906 C 290.480469 210.96875 289.347656 210.949219 288.199219 210.933594 L 288.171875 213.039062 L 290.277344 212.992188 C 290.054688 202.820312 289.703125 186.871094 289.351562 172.316406 C 289.003906 157.757812 288.660156 144.617188 288.464844 139.988281 C 288.320312 136.8125 287.492188 134.207031 286.15625 132.289062 C 285.484375 131.332031 284.679688 130.542969 283.753906 129.980469 C 282.828125 129.417969 281.773438 129.09375 280.6875 129.09375 C 279.667969 129.089844 278.644531 129.386719 277.75 129.933594 C 276.40625 130.753906 275.363281 132.078125 274.640625 133.761719 C 273.914062 135.449219 273.484375 137.515625 273.386719 140 C 273.183594 145.246094 272.871094 158.84375 272.558594 173.601562 C 272.246094 188.363281 271.941406 204.265625 271.757812 214.066406 L 273.863281 214.105469 L 273.476562 212.035156 C 272.5 212.214844 271.519531 212.414062 270.539062 212.621094 L 270.984375 214.683594 L 273.089844 214.628906 C 272.902344 206.964844 272.558594 193.6875 272.1875 181.136719 C 271.996094 174.863281 271.800781 168.773438 271.605469 163.65625 C 271.417969 158.539062 271.226562 154.410156 271.054688 152 C 270.804688 148.566406 269.980469 145.917969 268.648438 143.988281 C 267.984375 143.027344 267.175781 142.25 266.25 141.710938 C 265.335938 141.167969 264.292969 140.882812 263.261719 140.886719 C 262.128906 140.882812 261.027344 141.222656 260.070312 141.804688 C 258.621094 142.6875 257.480469 144.082031 256.679688 145.835938 C 255.886719 147.589844 255.441406 149.714844 255.441406 152.148438 C 255.441406 154.304688 255.238281 159.648438 254.929688 166.355469 C 254.464844 176.421875 253.765625 189.640625 253.183594 200.339844 C 252.894531 205.6875 252.628906 210.40625 252.445312 213.785156 C 252.25 217.167969 252.136719 219.207031 252.136719 219.210938 L 254.238281 219.332031 L 252.242188 218.660156 L 246.445312 235.976562 L 248.4375 236.648438 L 247.875 234.617188 L 248.003906 235.078125 L 247.875 234.617188 L 248.003906 235.078125 L 247.875 234.617188 C 247.828125 234.632812 245.347656 235.292969 242.503906 235.289062 C 241.136719 235.289062 239.691406 235.136719 238.417969 234.742188 C 237.128906 234.347656 236.035156 233.730469 235.1875 232.808594 L 235.183594 232.804688 C 232.050781 229.402344 229.167969 226.042969 226.105469 223.222656 C 223.039062 220.414062 219.75 218.105469 215.8125 217.066406 C 215.058594 216.871094 214.289062 216.777344 213.519531 216.777344 C 210.707031 216.792969 207.96875 217.9375 205.808594 219.753906 C 204.734375 220.667969 203.800781 221.765625 203.121094 223.027344 C 202.449219 224.289062 202.027344 225.730469 202.027344 227.253906 C 202.019531 229.292969 202.804688 231.425781 204.394531 233.308594 C 205.027344 234.0625 206.136719 235.582031 207.515625 237.578125 C 212.363281 244.589844 220.714844 257.636719 227.835938 268.902344 C 231.398438 274.539062 234.652344 279.730469 237.019531 283.511719 C 238.199219 285.40625 239.160156 286.945312 239.824219 288.015625 C 240.488281 289.078125 240.855469 289.671875 240.855469 289.675781 L 241.042969 289.929688 C 243.132812 292.375 245.914062 294.925781 249.007812 297.398438 C 252.105469 299.859375 255.511719 302.230469 258.84375 304.261719 L 259.109375 303.828125 L 258.761719 304.203125 L 258.84375 304.261719 L 259.109375 303.828125 L 258.761719 304.203125 L 258.878906 304.078125 L 258.753906 304.191406 L 258.761719 304.203125 L 258.878906 304.078125 L 258.753906 304.191406 C 258.753906 304.191406 258.785156 304.234375 258.839844 304.328125 C 259.035156 304.65625 259.320312 305.605469 259.472656 306.898438 C 259.636719 308.191406 259.714844 309.839844 259.714844 311.710938 C 259.714844 317.425781 259 325.195312 258.28125 332.414062 C 257.917969 336.027344 257.558594 339.503906 257.285156 342.554688 C 257.011719 345.605469 256.824219 348.207031 256.824219 350.15625 C 256.824219 351.128906 256.863281 351.925781 257.011719 352.675781 C 257.097656 353.058594 257.1875 353.441406 257.484375 353.929688 C 257.636719 354.167969 257.851562 354.453125 258.214844 354.695312 C 258.566406 354.945312 259.078125 355.117188 259.550781 355.109375 C 259.910156 355.109375 260.601562 355.140625 261.503906 355.191406 C 264.6875 355.382812 270.59375 355.863281 277.496094 356.296875 C 284.40625 356.734375 292.320312 357.121094 299.613281 357.121094 C 304.90625 357.121094 309.867188 356.917969 313.929688 356.363281 C 315.96875 356.085938 317.777344 355.71875 319.339844 355.21875 C 320.894531 354.699219 322.226562 354.082031 323.285156 353.035156 C 323.671875 352.617188 323.75 352.332031 323.824219 352.132812 C 323.914062 351.832031 323.925781 351.667969 323.945312 351.503906 C 323.957031 351.34375 323.960938 351.207031 323.960938 351.0625 C 323.960938 350.605469 323.921875 350.082031 323.859375 349.425781 C 323.628906 346.988281 323.023438 342.753906 322.242188 337.625 C 321.066406 329.945312 319.484375 320.324219 318.207031 312.265625 C 317.566406 308.238281 316.996094 304.597656 316.59375 301.800781 C 316.394531 300.398438 316.230469 299.210938 316.121094 298.292969 C 316.066406 297.835938 316.027344 297.449219 315.996094 297.148438 C 315.972656 296.851562 315.960938 296.625 315.960938 296.558594 L 315.960938 296.546875 L 315.074219 296.527344 L 315.953125 296.652344 L 315.960938 296.546875 L 315.074219 296.527344 L 315.953125 296.652344 L 314.25 296.410156 L 315.902344 296.875 C 315.933594 296.769531 315.945312 296.703125 315.953125 296.652344 L 314.25 296.410156 L 315.902344 296.875 L 314.007812 296.339844 L 315.695312 297.359375 C 315.828125 297.128906 315.871094 296.980469 315.902344 296.875 L 314.007812 296.339844 L 315.695312 297.359375 L 315.734375 297.285156 L 313.886719 296.269531 L 312.085938 295.183594 C 311.921875 295.46875 311.871094 295.648438 311.832031 295.792969 C 311.78125 296.003906 311.769531 296.132812 311.761719 296.253906 C 311.753906 296.367188 311.75 296.464844 311.75 296.558594 C 311.753906 296.972656 311.789062 297.417969 311.851562 298.011719 C 312.082031 300.207031 312.6875 304.269531 313.472656 309.28125 C 314.648438 316.792969 316.222656 326.390625 317.503906 334.566406 C 318.140625 338.648438 318.707031 342.382812 319.109375 345.308594 C 319.316406 346.773438 319.476562 348.035156 319.585938 349.03125 C 319.695312 350.015625 319.75 350.769531 319.75 351.0625 L 319.746094 351.148438 L 319.746094 351.15625 L 320.84375 351.238281 L 319.777344 350.980469 C 319.746094 351.109375 319.75 351.148438 319.746094 351.15625 L 320.84375 351.238281 L 319.777344 350.980469 L 321.523438 351.398438 L 319.878906 350.675781 C 319.820312 350.820312 319.792969 350.914062 319.777344 350.980469 L 321.523438 351.398438 L 319.878906 350.675781 L 321.710938 351.480469 L 320.28125 350.078125 C 320.039062 350.332031 319.945312 350.535156 319.878906 350.675781 L 321.710938 351.480469 L 320.28125 350.078125 L 320.289062 350.078125 C 320.035156 350.355469 319.25 350.832031 318.042969 351.214844 C 316.226562 351.804688 313.539062 352.253906 310.359375 352.519531 C 307.179688 352.796875 303.5 352.910156 299.613281 352.910156 C 291.445312 352.910156 282.363281 352.414062 274.882812 351.910156 C 271.144531 351.660156 267.800781 351.410156 265.160156 351.222656 C 263.835938 351.125 262.695312 351.042969 261.757812 350.992188 C 260.8125 350.933594 260.09375 350.902344 259.550781 350.902344 L 259.550781 352.730469 L 260.578125 351.21875 C 260.324219 351.03125 259.914062 350.890625 259.550781 350.902344 L 259.550781 352.730469 L 260.578125 351.21875 L 259.652344 352.585938 L 261.019531 351.648438 C 260.945312 351.539062 260.8125 351.375 260.578125 351.21875 L 259.652344 352.585938 L 261.019531 351.648438 L 260.050781 352.316406 L 261.136719 351.855469 C 261.117188 351.816406 261.089844 351.75 261.019531 351.648438 L 260.050781 352.316406 L 261.136719 351.855469 L 260.785156 352.003906 L 261.152344 351.894531 L 261.136719 351.855469 L 260.785156 352.003906 L 261.152344 351.894531 C 261.144531 351.875 261.097656 351.664062 261.078125 351.359375 C 261.046875 351.050781 261.035156 350.640625 261.035156 350.15625 C 261.03125 348.476562 261.210938 345.925781 261.476562 342.929688 C 261.882812 338.421875 262.492188 332.863281 263.003906 327.324219 C 263.511719 321.777344 263.925781 316.246094 263.925781 311.710938 C 263.921875 309.210938 263.808594 307.019531 263.472656 305.203125 C 263.300781 304.292969 263.082031 303.472656 262.734375 302.707031 C 262.558594 302.332031 262.351562 301.960938 262.082031 301.609375 C 261.808594 301.265625 261.46875 300.933594 261.035156 300.667969 C 257.863281 298.734375 254.578125 296.449219 251.636719 294.101562 C 248.691406 291.757812 246.074219 289.339844 244.25 287.195312 L 242.644531 288.566406 L 244.433594 287.453125 C 244.433594 287.453125 236.71875 275.027344 228.277344 261.730469 C 224.054688 255.082031 219.65625 248.21875 215.9375 242.570312 C 214.078125 239.746094 212.390625 237.226562 210.976562 235.183594 C 209.5625 233.136719 208.441406 231.585938 207.625 230.609375 C 206.574219 229.339844 206.246094 228.257812 206.238281 227.253906 C 206.238281 226.496094 206.445312 225.753906 206.835938 225.019531 C 207.421875 223.917969 208.460938 222.867188 209.695312 222.136719 C 210.917969 221.394531 212.320312 220.984375 213.519531 220.988281 C 213.953125 220.988281 214.367188 221.039062 214.746094 221.140625 C 217.71875 221.917969 220.445312 223.738281 223.253906 226.320312 C 226.058594 228.894531 228.894531 232.183594 232.085938 235.652344 L 232.082031 235.648438 C 233.539062 237.242188 235.359375 238.207031 237.175781 238.765625 C 238.996094 239.324219 240.835938 239.496094 242.503906 239.496094 C 246.074219 239.492188 248.894531 238.699219 249.003906 238.675781 C 249.675781 238.488281 250.214844 237.976562 250.4375 237.316406 L 256.238281 220.003906 C 256.296875 219.8125 256.332031 219.648438 256.34375 219.453125 C 256.34375 219.453125 257.171875 204.90625 257.996094 189.234375 C 258.414062 181.394531 258.824219 173.277344 259.136719 166.546875 C 259.445312 159.808594 259.65625 154.5 259.65625 152.148438 C 259.652344 149.59375 260.292969 147.714844 261.070312 146.582031 C 261.460938 146.011719 261.875 145.628906 262.253906 145.402344 C 262.632812 145.175781 262.960938 145.09375 263.261719 145.089844 C 263.53125 145.09375 263.804688 145.160156 264.128906 145.347656 C 264.601562 145.621094 265.207031 146.222656 265.738281 147.355469 C 266.261719 148.476562 266.699219 150.117188 266.855469 152.296875 C 267.019531 154.597656 267.210938 158.71875 267.398438 163.816406 C 267.972656 179.113281 268.59375 203.25 268.878906 214.730469 C 268.894531 215.355469 269.191406 215.949219 269.679688 216.335938 C 270.175781 216.722656 270.816406 216.871094 271.429688 216.738281 C 272.363281 216.535156 273.300781 216.351562 274.246094 216.175781 C 275.230469 215.992188 275.949219 215.144531 275.96875 214.144531 C 276.15625 204.347656 276.457031 188.445312 276.769531 173.691406 C 277.078125 158.945312 277.398438 145.328125 277.597656 140.160156 C 277.695312 137.382812 278.320312 135.519531 278.996094 134.507812 C 279.328125 134 279.664062 133.699219 279.9375 133.53125 C 280.222656 133.363281 280.449219 133.308594 280.6875 133.304688 C 280.9375 133.304688 281.226562 133.375 281.574219 133.582031 C 282.097656 133.894531 282.734375 134.558594 283.257812 135.65625 C 283.773438 136.753906 284.175781 138.261719 284.253906 140.167969 C 284.449219 144.703125 284.796875 157.871094 285.140625 172.417969 C 285.488281 186.96875 285.84375 202.914062 286.066406 213.085938 C 286.09375 214.222656 287.007812 215.128906 288.148438 215.144531 C 289.277344 215.160156 290.386719 215.179688 291.472656 215.207031 C 292.609375 215.242188 293.570312 214.355469 293.636719 213.222656 C 294.667969 194.832031 296.792969 157.265625 297.152344 150.929688 C 297.25 149.265625 297.71875 148.207031 298.183594 147.636719 C 298.421875 147.347656 298.652344 147.171875 298.859375 147.0625 C 299.070312 146.960938 299.257812 146.921875 299.457031 146.917969 C 299.675781 146.921875 299.90625 146.96875 300.171875 147.117188 C 300.5625 147.335938 301.039062 147.789062 301.433594 148.617188 C 301.824219 149.449219 302.121094 150.652344 302.121094 152.257812 C 302.121094 155.890625 302.332031 166.988281 302.589844 179.398438 C 302.851562 191.804688 303.164062 205.496094 303.363281 214.230469 C 303.382812 215.246094 304.136719 216.101562 305.140625 216.261719 C 306.332031 216.445312 307.445312 216.667969 308.515625 216.917969 C 309.121094 217.058594 309.757812 216.921875 310.257812 216.546875 C 310.757812 216.175781 311.0625 215.601562 311.09375 214.976562 C 311.484375 207.601562 311.941406 198.683594 312.296875 190.480469 C 312.648438 182.265625 312.910156 174.777344 312.910156 170.203125 C 312.910156 169.023438 312.894531 168.035156 312.851562 167.25 L 312.851562 167.242188 C 312.835938 166.9375 312.828125 166.65625 312.828125 166.378906 C 312.824219 164.589844 313.160156 163.464844 313.449219 162.988281 C 313.59375 162.746094 313.699219 162.664062 313.730469 162.640625 L 313.75 162.632812 L 313.742188 162.613281 L 313.742188 162.632812 L 313.75 162.632812 L 313.742188 162.613281 L 313.742188 162.632812 L 313.753906 162.632812 C 313.769531 162.632812 313.886719 162.636719 314.105469 162.773438 C 314.429688 162.964844 314.929688 163.449219 315.367188 164.238281 C 315.808594 165.023438 316.195312 166.101562 316.394531 167.429688 C 316.527344 168.320312 316.695312 169.976562 316.867188 172.113281 C 317.464844 179.625 318.171875 193.214844 318.722656 204.898438 C 319.003906 210.738281 319.242188 216.109375 319.410156 220.023438 C 319.496094 221.976562 319.5625 223.566406 319.613281 224.667969 C 319.65625 225.765625 319.683594 226.378906 319.683594 226.378906 L 319.6875 226.449219 C 319.917969 229.59375 320.554688 237.570312 320.554688 247.417969 C 320.554688 255.125 320.164062 263.96875 318.890625 272.449219 C 317.621094 280.929688 315.460938 289.046875 312.042969 295.257812 L 313.886719 296.269531 L 312.085938 295.183594 L 313.886719 296.269531 "/>
<path style=" stroke:none;fill-rule:nonzero;fill:rgb(100%,100%,100%);fill-opacity:1;" d="M 248.46875 372.792969 L 335.28125 372.792969 L 329.085938 332.519531 L 254.664062 332.519531 L 248.46875 372.792969 "/>
<g clip-path="url(#clip2)" clip-rule="nonzero">
<path style=" stroke:none;fill-rule:nonzero;fill:rgb(1.179504%,59.609985%,61.959839%);fill-opacity:1;" d="M 248.46875 372.792969 L 248.46875 374.898438 L 335.28125 374.898438 C 335.898438 374.898438 336.476562 374.628906 336.878906 374.164062 C 337.28125 373.699219 337.453125 373.082031 337.359375 372.472656 L 331.164062 332.199219 C 331.003906 331.167969 330.125 330.414062 329.085938 330.414062 L 254.664062 330.414062 C 253.625 330.414062 252.746094 331.167969 252.585938 332.199219 L 246.386719 372.472656 C 246.292969 373.082031 246.464844 373.699219 246.867188 374.164062 C 247.269531 374.628906 247.851562 374.898438 248.46875 374.898438 L 248.46875 372.792969 L 250.550781 373.113281 L 256.476562 334.621094 L 327.277344 334.621094 L 332.828125 370.6875 L 248.46875 370.6875 L 248.46875 372.792969 L 250.550781 373.113281 L 248.46875 372.792969 "/>
</g>
<path style=" stroke:none;fill-rule:nonzero;fill:rgb(100%,100%,100%);fill-opacity:1;" d="M 54.636719 296.269531 C 42.851562 274.78125 46.144531 234.359375 46.738281 226.292969 C 46.738281 226.292969 48.839844 175.085938 50.046875 167.113281 C 51.253906 159.152344 58.273438 157.460938 57.773438 167.355469 C 57.457031 173.734375 58.640625 198.234375 59.53125 214.867188 C 60.648438 214.609375 61.8125 214.378906 63.058594 214.179688 C 63.460938 196.714844 64.300781 159.414062 64.300781 152.257812 C 64.300781 142.84375 72.988281 142.355469 73.476562 150.808594 C 73.832031 157.144531 75.953125 194.714844 76.992188 213.109375 C 78.089844 213.074219 79.210938 213.054688 80.351562 213.039062 C 80.800781 192.695312 81.765625 149.242188 82.167969 140.078125 C 82.652344 128.980469 92.554688 127.523438 93.035156 140.078125 C 93.433594 150.496094 94.285156 194.503906 94.664062 214.105469 C 95.625 214.285156 96.589844 214.472656 97.539062 214.683594 C 97.917969 199.363281 98.894531 161.566406 99.570312 152.148438 C 100.519531 138.871094 110.96875 141.050781 110.96875 152.148438 C 110.96875 161.160156 114.285156 219.332031 114.285156 219.332031 L 120.078125 236.648438 C 120.078125 236.648438 130.113281 239.4375 134.890625 234.230469 C 141.207031 227.355469 146.339844 220.921875 153.246094 219.105469 C 159.363281 217.496094 168.3125 225.03125 162.511719 231.960938 C 156.714844 238.890625 125.875 288.566406 125.875 288.566406 C 121.960938 293.148438 115.09375 298.503906 108.585938 302.464844 C 102.988281 305.878906 111.941406 353.003906 108.972656 353.003906 C 103.089844 353.003906 53.476562 358.378906 46.738281 351.554688 C 45.777344 350.585938 55.289062 297.453125 54.636719 296.269531 "/>
<path style=" stroke:none;fill-rule:nonzero;fill:rgb(1.179504%,59.609985%,61.959839%);fill-opacity:1;" d="M 54.636719 296.269531 L 56.480469 295.257812 C 53.0625 289.042969 50.902344 280.925781 49.632812 272.445312 C 48.363281 263.964844 47.96875 255.125 47.96875 247.410156 C 47.96875 237.570312 48.601562 229.589844 48.839844 226.449219 L 48.84375 226.378906 C 48.84375 226.378906 48.875 225.582031 48.933594 224.167969 C 49.144531 219.210938 49.683594 206.71875 50.304688 194.601562 C 50.613281 188.542969 50.941406 182.578125 51.257812 177.703125 C 51.417969 175.261719 51.570312 173.097656 51.71875 171.332031 C 51.867188 169.578125 52.011719 168.203125 52.125 167.429688 C 52.394531 165.660156 53 164.332031 53.601562 163.550781 C 53.902344 163.15625 54.199219 162.902344 54.417969 162.773438 C 54.636719 162.636719 54.753906 162.632812 54.769531 162.632812 L 54.78125 162.632812 L 54.78125 162.621094 L 54.773438 162.632812 L 54.78125 162.632812 L 54.78125 162.621094 L 54.773438 162.632812 C 54.78125 162.632812 54.816406 162.644531 54.902344 162.746094 C 55.027344 162.882812 55.238281 163.222656 55.40625 163.824219 C 55.574219 164.425781 55.695312 165.28125 55.691406 166.378906 C 55.691406 166.65625 55.6875 166.945312 55.671875 167.261719 L 55.671875 167.25 C 55.628906 168.035156 55.613281 169.027344 55.613281 170.214844 C 55.613281 174.789062 55.875 182.277344 56.226562 190.488281 C 56.582031 198.695312 57.03125 207.605469 57.429688 214.976562 C 57.460938 215.601562 57.765625 216.175781 58.261719 216.546875 C 58.761719 216.921875 59.394531 217.058594 60.003906 216.917969 C 61.078125 216.667969 62.195312 216.445312 63.382812 216.261719 C 64.390625 216.101562 65.140625 215.246094 65.164062 214.230469 C 65.367188 205.496094 65.671875 191.804688 65.933594 179.398438 C 66.191406 166.988281 66.402344 155.890625 66.402344 152.257812 C 66.402344 150.109375 66.933594 148.695312 67.503906 147.90625 C 67.792969 147.507812 68.085938 147.265625 68.351562 147.117188 C 68.617188 146.96875 68.847656 146.921875 69.066406 146.917969 C 69.261719 146.921875 69.453125 146.960938 69.664062 147.0625 C 69.976562 147.222656 70.34375 147.542969 70.683594 148.15625 C 71.015625 148.769531 71.300781 149.6875 71.371094 150.929688 C 71.730469 157.265625 73.851562 194.832031 74.890625 213.222656 C 74.957031 214.363281 75.914062 215.242188 77.054688 215.207031 C 78.136719 215.179688 79.246094 215.160156 80.375 215.144531 C 81.515625 215.128906 82.433594 214.222656 82.457031 213.085938 C 82.679688 202.914062 83.03125 186.964844 83.382812 172.417969 C 83.726562 157.871094 84.074219 144.703125 84.269531 140.167969 C 84.378906 137.628906 85.050781 135.792969 85.816406 134.703125 C 86.199219 134.15625 86.597656 133.792969 86.949219 133.582031 C 87.300781 133.375 87.585938 133.304688 87.835938 133.304688 C 88.074219 133.308594 88.300781 133.363281 88.582031 133.53125 C 88.996094 133.777344 89.546875 134.34375 90.015625 135.429688 C 90.484375 136.507812 90.851562 138.082031 90.929688 140.160156 C 91.125 145.328125 91.4375 158.945312 91.753906 173.691406 C 92.058594 188.445312 92.367188 204.347656 92.558594 214.144531 C 92.574219 215.144531 93.292969 215.992188 94.277344 216.175781 C 95.222656 216.351562 96.164062 216.535156 97.097656 216.738281 C 97.707031 216.871094 98.351562 216.722656 98.84375 216.335938 C 99.332031 215.949219 99.628906 215.355469 99.644531 214.730469 C 99.832031 207.078125 100.171875 193.796875 100.550781 181.261719 C 100.734375 174.996094 100.929688 168.914062 101.125 163.816406 C 101.316406 158.71875 101.503906 154.597656 101.667969 152.296875 C 101.875 149.390625 102.585938 147.453125 103.332031 146.390625 C 103.707031 145.851562 104.078125 145.53125 104.394531 145.347656 C 104.71875 145.160156 104.988281 145.09375 105.261719 145.089844 C 105.5625 145.09375 105.886719 145.175781 106.265625 145.402344 C 106.832031 145.742188 107.492188 146.445312 108 147.570312 C 108.511719 148.695312 108.863281 150.234375 108.863281 152.148438 C 108.863281 154.5 109.074219 159.808594 109.386719 166.546875 C 110.320312 186.730469 112.183594 219.445312 112.183594 219.453125 C 112.191406 219.628906 112.234375 219.832031 112.289062 219.996094 L 118.082031 237.316406 C 118.304688 237.976562 118.84375 238.488281 119.515625 238.675781 C 119.625 238.699219 122.449219 239.492188 126.019531 239.496094 C 127.683594 239.496094 129.523438 239.324219 131.34375 238.765625 C 133.164062 238.207031 134.984375 237.242188 136.441406 235.652344 C 139.628906 232.183594 142.464844 228.894531 145.269531 226.320312 C 148.078125 223.742188 150.804688 221.917969 153.78125 221.140625 C 154.15625 221.039062 154.570312 220.988281 155.003906 220.988281 C 156.601562 220.972656 158.554688 221.738281 159.984375 222.960938 C 160.703125 223.570312 161.292969 224.28125 161.683594 225.019531 C 162.078125 225.75 162.28125 226.496094 162.28125 227.25 C 162.269531 228.257812 161.945312 229.339844 160.898438 230.609375 C 160.078125 231.585938 158.960938 233.136719 157.542969 235.183594 C 152.605469 242.320312 144.257812 255.367188 137.121094 266.652344 C 129.992188 277.9375 124.085938 287.453125 124.085938 287.453125 L 125.875 288.566406 L 124.269531 287.195312 C 122.445312 289.339844 119.832031 291.761719 116.886719 294.101562 C 113.945312 296.449219 110.664062 298.734375 107.492188 300.667969 C 107.058594 300.933594 106.71875 301.265625 106.445312 301.609375 C 105.96875 302.222656 105.679688 302.886719 105.445312 303.59375 C 105.105469 304.65625 104.910156 305.851562 104.777344 307.210938 C 104.648438 308.566406 104.597656 310.078125 104.597656 311.71875 C 104.597656 317.765625 105.328125 325.589844 106.046875 332.84375 C 106.414062 336.464844 106.769531 339.9375 107.042969 342.941406 C 107.308594 345.9375 107.488281 348.484375 107.484375 350.160156 C 107.488281 350.984375 107.433594 351.613281 107.382812 351.832031 L 107.371094 351.890625 L 107.367188 351.898438 L 107.875 352.046875 L 107.394531 351.828125 L 107.367188 351.898438 L 107.875 352.046875 L 107.394531 351.828125 L 108.738281 352.449219 L 107.773438 351.34375 C 107.519531 351.574219 107.4375 351.746094 107.394531 351.828125 L 108.738281 352.449219 L 107.773438 351.34375 L 108.957031 352.695312 L 108.289062 351.03125 C 108.078125 351.113281 107.902344 351.234375 107.773438 351.34375 L 108.957031 352.695312 L 108.289062 351.03125 L 108.972656 352.742188 L 108.972656 350.902344 C 108.75 350.902344 108.503906 350.945312 108.289062 351.03125 L 108.972656 352.742188 L 108.972656 350.902344 C 108.433594 350.902344 107.710938 350.933594 106.769531 350.992188 C 103.492188 351.1875 97.628906 351.664062 90.765625 352.097656 C 83.90625 352.527344 76.058594 352.910156 68.910156 352.910156 C 63.734375 352.910156 58.910156 352.707031 55.160156 352.195312 C 53.289062 351.941406 51.691406 351.605469 50.480469 351.214844 C 49.273438 350.832031 48.492188 350.355469 48.234375 350.078125 L 48.230469 350.070312 L 46.84375 351.457031 L 48.714844 350.851562 C 48.65625 350.707031 48.597656 350.457031 48.230469 350.070312 L 46.84375 351.457031 L 48.714844 350.851562 L 47.4375 351.261719 L 48.777344 351.148438 C 48.769531 351.125 48.777344 351.070312 48.714844 350.851562 L 47.4375 351.261719 L 48.777344 351.148438 L 48.703125 351.152344 L 48.777344 351.148438 L 48.703125 351.152344 L 48.777344 351.148438 L 48.773438 351.0625 C 48.773438 350.859375 48.800781 350.40625 48.855469 349.820312 C 49.0625 347.59375 49.667969 343.351562 50.449219 338.261719 C 51.617188 330.617188 53.191406 321 54.476562 312.929688 C 55.117188 308.886719 55.683594 305.238281 56.09375 302.398438 C 56.300781 300.980469 56.464844 299.765625 56.582031 298.792969 C 56.636719 298.308594 56.6875 297.886719 56.714844 297.519531 C 56.75 297.148438 56.769531 296.855469 56.769531 296.558594 C 56.769531 296.429688 56.769531 296.308594 56.753906 296.144531 C 56.742188 296.058594 56.730469 295.96875 56.699219 295.84375 C 56.671875 295.714844 56.632812 295.558594 56.5 295.296875 L 56.480469 295.257812 L 54.636719 296.269531 L 52.769531 297.25 L 54.492188 296.347656 L 52.59375 296.78125 C 52.621094 296.875 52.644531 297.007812 52.769531 297.25 L 54.492188 296.347656 L 52.59375 296.78125 L 54.007812 296.460938 L 52.5625 296.5625 C 52.5625 296.589844 52.566406 296.644531 52.59375 296.78125 L 54.007812 296.460938 L 52.5625 296.5625 L 53.027344 296.527344 L 52.558594 296.542969 L 52.5625 296.5625 L 53.027344 296.527344 L 52.558594 296.542969 L 52.558594 296.558594 C 52.5625 296.660156 52.539062 297.054688 52.480469 297.574219 C 52.273438 299.574219 51.671875 303.648438 50.890625 308.632812 C 49.714844 316.121094 48.140625 325.714844 46.859375 333.914062 C 46.21875 338.011719 45.648438 341.761719 45.238281 344.734375 C 45.03125 346.222656 44.867188 347.511719 44.753906 348.570312 C 44.636719 349.632812 44.566406 350.429688 44.5625 351.0625 C 44.566406 351.257812 44.566406 351.4375 44.601562 351.683594 C 44.617188 351.804688 44.640625 351.945312 44.703125 352.144531 C 44.777344 352.34375 44.859375 352.632812 45.246094 353.042969 L 45.242188 353.035156 C 46.296875 354.082031 47.628906 354.699219 49.183594 355.21875 C 51.523438 355.96875 54.441406 356.421875 57.800781 356.71875 C 61.15625 357.003906 64.941406 357.121094 68.910156 357.121094 C 77.246094 357.121094 86.398438 356.617188 93.917969 356.109375 C 97.683594 355.859375 101.035156 355.609375 103.667969 355.417969 C 104.976562 355.324219 106.113281 355.246094 107.019531 355.191406 C 107.921875 355.140625 108.613281 355.109375 108.972656 355.109375 C 109.449219 355.117188 109.960938 354.941406 110.316406 354.695312 C 110.628906 354.476562 110.835938 354.234375 110.984375 354.015625 C 111.238281 353.632812 111.339844 353.316406 111.425781 353.019531 C 111.550781 352.574219 111.605469 352.15625 111.644531 351.6875 C 111.683594 351.222656 111.695312 350.714844 111.695312 350.160156 C 111.695312 348.214844 111.507812 345.617188 111.238281 342.5625 C 110.828125 337.996094 110.21875 332.445312 109.710938 326.949219 C 109.207031 321.457031 108.804688 316.003906 108.804688 311.71875 C 108.804688 309.363281 108.929688 307.355469 109.191406 305.972656 C 109.316406 305.285156 109.480469 304.753906 109.617188 304.464844 C 109.683594 304.316406 109.742188 304.230469 109.761719 304.203125 L 109.757812 304.195312 L 109.761719 304.203125 L 109.757812 304.195312 L 109.761719 304.203125 L 109.414062 303.832031 L 109.679688 304.261719 L 109.761719 304.203125 L 109.414062 303.832031 L 109.679688 304.261719 C 113.015625 302.230469 116.417969 299.859375 119.511719 297.398438 C 122.609375 294.925781 125.386719 292.375 127.476562 289.929688 L 127.664062 289.675781 C 127.664062 289.671875 128.144531 288.898438 129 287.53125 C 131.984375 282.730469 139.539062 270.636719 146.976562 258.992188 C 150.695312 253.171875 154.382812 247.460938 157.453125 242.839844 C 158.984375 240.53125 160.367188 238.492188 161.511719 236.851562 C 162.652344 235.21875 163.574219 233.96875 164.125 233.308594 C 165.714844 231.425781 166.5 229.292969 166.492188 227.25 C 166.492188 225.726562 166.070312 224.285156 165.398438 223.027344 C 164.378906 221.132812 162.800781 219.613281 160.992188 218.523438 C 159.179688 217.445312 157.113281 216.78125 155.003906 216.777344 C 154.234375 216.777344 153.464844 216.871094 152.710938 217.066406 C 148.773438 218.105469 145.484375 220.414062 142.417969 223.222656 C 139.355469 226.042969 136.46875 229.402344 133.339844 232.804688 C 132.488281 233.730469 131.394531 234.347656 130.105469 234.742188 C 128.828125 235.136719 127.382812 235.289062 126.019531 235.289062 C 124.550781 235.289062 123.175781 235.121094 122.191406 234.945312 C 121.691406 234.859375 121.292969 234.773438 121.027344 234.710938 C 120.890625 234.679688 120.789062 234.65625 120.726562 234.636719 L 120.65625 234.621094 L 120.644531 234.617188 L 120.503906 235.125 L 120.644531 234.617188 L 120.503906 235.125 L 120.644531 234.617188 L 120.078125 236.648438 L 122.078125 235.976562 L 116.285156 218.664062 L 114.285156 219.332031 L 116.386719 219.210938 C 116.386719 219.207031 116.335938 218.304688 116.246094 216.695312 C 115.929688 211.066406 115.136719 196.875 114.421875 183.113281 C 114.066406 176.226562 113.730469 169.449219 113.484375 163.902344 C 113.230469 158.371094 113.074219 154.027344 113.074219 152.148438 C 113.074219 148.90625 112.285156 146.203125 110.929688 144.207031 C 110.246094 143.210938 109.414062 142.390625 108.453125 141.804688 C 107.492188 141.222656 106.394531 140.882812 105.261719 140.886719 C 104.230469 140.882812 103.1875 141.167969 102.269531 141.710938 C 100.882812 142.523438 99.773438 143.859375 98.96875 145.570312 C 98.167969 147.292969 97.652344 149.421875 97.46875 152 C 97.296875 154.410156 97.109375 158.539062 96.917969 163.65625 C 96.335938 179 95.714844 203.132812 95.4375 214.628906 L 97.539062 214.683594 L 97.984375 212.621094 C 97.007812 212.414062 96.027344 212.214844 95.046875 212.035156 L 94.664062 214.105469 L 96.765625 214.066406 C 96.582031 204.265625 96.273438 188.363281 95.964844 173.601562 C 95.652344 158.84375 95.339844 145.246094 95.140625 140 C 95.003906 136.6875 94.292969 134.109375 93.050781 132.207031 C 92.429688 131.257812 91.664062 130.480469 90.773438 129.933594 C 89.878906 129.386719 88.855469 129.089844 87.835938 129.09375 C 86.75 129.09375 85.695312 129.417969 84.769531 129.980469 C 83.378906 130.828125 82.265625 132.164062 81.460938 133.855469 C 80.660156 135.542969 80.167969 137.605469 80.0625 139.988281 C 79.863281 144.617188 79.519531 157.757812 79.171875 172.316406 C 78.820312 186.871094 78.46875 202.820312 78.246094 212.992188 L 80.351562 213.039062 L 80.328125 210.933594 C 79.175781 210.949219 78.042969 210.96875 76.933594 211.003906 L 76.992188 213.109375 L 79.097656 212.988281 C 78.058594 194.59375 75.9375 157.027344 75.578125 150.691406 C 75.441406 148.355469 74.761719 146.414062 73.609375 144.988281 C 73.039062 144.277344 72.339844 143.703125 71.5625 143.304688 C 70.785156 142.914062 69.925781 142.707031 69.066406 142.707031 C 68.105469 142.707031 67.152344 142.964844 66.304688 143.4375 C 65.023438 144.152344 63.984375 145.328125 63.28125 146.820312 C 62.578125 148.324219 62.195312 150.144531 62.195312 152.257812 C 62.195312 155.785156 61.980469 166.917969 61.722656 179.308594 C 61.460938 191.710938 61.152344 205.402344 60.953125 214.132812 L 63.058594 214.179688 L 62.734375 212.101562 C 61.433594 212.304688 60.214844 212.546875 59.050781 212.816406 L 59.53125 214.867188 L 61.632812 214.757812 C 61.234375 207.394531 60.789062 198.488281 60.433594 190.300781 C 60.082031 182.125 59.824219 174.652344 59.824219 170.214844 C 59.824219 169.070312 59.847656 168.132812 59.878906 167.464844 L 59.878906 167.453125 C 59.894531 167.089844 59.902344 166.734375 59.902344 166.378906 C 59.898438 164.113281 59.539062 162.3125 58.71875 160.878906 C 58.304688 160.167969 57.757812 159.546875 57.070312 159.101562 C 56.386719 158.65625 55.566406 158.417969 54.769531 158.421875 C 53.839844 158.421875 52.972656 158.722656 52.226562 159.175781 C 51.101562 159.867188 50.199219 160.902344 49.476562 162.183594 C 48.757812 163.472656 48.230469 165.023438 47.964844 166.800781 C 47.796875 167.910156 47.636719 169.59375 47.457031 171.78125 C 46.851562 179.40625 46.148438 192.992188 45.589844 204.695312 C 45.035156 216.398438 44.632812 226.203125 44.632812 226.207031 L 46.738281 226.292969 L 44.636719 226.136719 C 44.402344 229.277344 43.757812 237.402344 43.757812 247.410156 C 43.757812 255.265625 44.152344 264.292969 45.46875 273.070312 C 46.789062 281.847656 49.007812 290.378906 52.789062 297.285156 L 54.636719 296.269531 L 52.769531 297.25 L 54.636719 296.269531 "/>
<path style=" stroke:none;fill-rule:nonzero;fill:rgb(100%,100%,100%);fill-opacity:1;" d="M 120.058594 372.792969 L 33.242188 372.792969 L 39.441406 332.519531 L 113.855469 332.519531 L 120.058594 372.792969 "/>
<g clip-path="url(#clip3)" clip-rule="nonzero">
<path style=" stroke:none;fill-rule:nonzero;fill:rgb(1.179504%,59.609985%,61.959839%);fill-opacity:1;" d="M 120.058594 372.792969 L 120.058594 370.6875 L 35.695312 370.6875 L 41.25 334.621094 L 112.050781 334.621094 L 117.976562 373.113281 L 120.058594 372.792969 L 120.058594 370.6875 L 120.058594 372.792969 L 122.140625 372.472656 L 115.9375 332.199219 C 115.777344 331.167969 114.898438 330.414062 113.855469 330.414062 L 39.441406 330.414062 C 38.398438 330.414062 37.519531 331.167969 37.363281 332.199219 L 31.160156 372.472656 C 31.066406 373.082031 31.242188 373.699219 31.640625 374.164062 C 32.042969 374.628906 32.625 374.898438 33.242188 374.898438 L 120.058594 374.898438 C 120.675781 374.898438 121.257812 374.628906 121.65625 374.164062 C 122.058594 373.695312 122.230469 373.082031 122.140625 372.472656 L 120.058594 372.792969 "/>
</g>
</g>
</svg>
